<svg xmlns="http://www.w3.org/2000/svg" height="170.452" width="172.656">
  <ellipse cx="86.328" cy="85.226" rx="86.328" ry="85.226" fill="#fbc257"/>
  <path d="M127.023 56.952l44.081 44.796c-9.303 43.022-45.37 66.097-77.106 68.348-20.497-19.222-32.154-33.377-50.787-52.226l40.812-53.845c-1.457-7.27-10.949-14.18-10.45-14.362 10.698-3.904 34.848 1.112 53.45 7.289z" fill="#cb983c"/>
  <path d="M48.474 103.96c-.044 5.521-2.713 9.391-5.263 13.91 4.902-.314 10.598-.125 18.421-6.767 20.11 3.89 50.555-3.53 48.496-30.263-6.058-39.342-70.573-30.07-72.556.376-1.055 9.063 4.467 17.176 10.902 22.744z" fill="#fff"/>
  <path d="M73.049 49.745c20.873-5.044 59.733 15.118 38.91 48.308 6.578 4.38 13.157 8.02 19.736 6.955-3.842-3.839-6.235-9.21-6.579-18.045 24.265-37.334-32.201-55.548-52.067-37.218z" fill="#fff"/>
  <path d="M67.148 76.324V90h2.05v-3.332l1.132-.931L73.45 90h2.426l-4.158-5.547 3.912-4.174h-2.383l-2.936 3.13-1.168 1.458h-.052l.105-1.873v-6.67zm-18.34.774L44 90h2.215l1.257-3.568h4.913L53.668 90H55.9l-4.806-12.902zm34.422.053v8.279c0 1.476.444 2.637 1.328 3.48.885.844 2.123 1.266 3.717 1.266 1.073 0 1.992-.191 2.76-.572.773-.387 1.363-.934 1.768-1.643.41-.715.615-1.547.615-2.496v-8.314h-2.102v8.11c0 2.081-.99 3.122-2.97 3.122-1.02 0-1.776-.252-2.268-.756-.492-.504-.738-1.287-.738-2.348v-8.128zm-33.289 1.757a26.523 26.523 0 0 0 .686 2.215l1.205 3.498h-3.744l1.16-3.35a19.67 19.67 0 0 0 .693-2.363zm11.082 1.196c-1.154 0-2.068.23-2.742.693-.668.457-1.002 1.102-1.002 1.934 0 .691.197 1.254.59 1.687.398.434 1.156.867 2.275 1.3.575.224 1.024.423 1.346.599.322.175.553.345.693.51.141.163.211.369.211.615 0 .767-.634 1.152-1.906 1.152-.984 0-2.049-.264-3.191-.791v1.783c.785.393 1.826.59 3.12.59 1.29 0 2.28-.252 2.971-.756.692-.51 1.038-1.24 1.038-2.19 0-.468-.088-.868-.264-1.202a2.535 2.535 0 0 0-.809-.897c-.363-.258-.947-.543-1.75-.853-.955-.37-1.576-.659-1.863-.87-.281-.21-.422-.468-.422-.773 0-.621.545-.932 1.635-.932.715 0 1.598.217 2.646.65l.668-1.556a7.758 7.758 0 0 0-3.244-.693zm39.09 0c-1.154 0-2.068.23-2.742.693-.668.457-1.002 1.102-1.002 1.934 0 .691.197 1.254.59 1.687.398.434 1.156.867 2.275 1.3.574.224 1.024.423 1.346.599.322.175.553.345.693.51.14.163.211.369.211.615 0 .767-.635 1.152-1.906 1.152-.984 0-2.049-.264-3.191-.791v1.783c.785.393 1.826.59 3.12.59 1.29 0 2.28-.252 2.971-.756.692-.51 1.038-1.24 1.038-2.19 0-.468-.088-.868-.264-1.202a2.535 2.535 0 0 0-.809-.897c-.363-.258-.947-.543-1.75-.853-.955-.37-1.576-.659-1.863-.87-.281-.21-.422-.468-.422-.773 0-.621.545-.932 1.635-.932.715 0 1.597.217 2.646.65l.668-1.556a7.758 7.758 0 0 0-3.244-.693z" fill="#cb983c"/>
</svg>
