<svg xmlns="http://www.w3.org/2000/svg" width="100" height="100">
    <defs>
        <clipPath id="a">
            <rect width="56.053" height="101.644" x="-26.024" y="56.308" transform="matrix(.71281 -.70136 .68473 .7288 0 0)" ry="16.07" fill="#ccc" stroke="#ccc" stroke-width=".882" stroke-opacity="0"/>
        </clipPath>
    </defs>
    <circle cx="50%" cy="50%" r="50" fill="#d9e0e7"/>
    <circle cx="50" cy="50" r="42" fill="#406486"/>
    <circle cx="50" cy="50" r="42" clip-path="url(#a)" transform="translate(-.097 .01)" fill="#002f5e"/>
    <path d="M46.65 61.025l-4.516 4.39c-1.832 1.78-5.15 1.45-7.4-.736-2.25-2.187-2.59-5.411-.758-7.192l9.817-9.542c1.833-1.782 5.15-1.452 7.401.735l5.073-4.93c-1.447-1.406-3.08-2.515-4.747-3.276-4.744-2.225-10.017-1.942-13.494 1.008-.168.124-.33.283-.462.41l-9.818 9.542c-4.614 4.485-3.752 12.669 1.915 18.175 5.666 5.507 14.088 6.343 18.703 1.858l8.857-8.726c-4.912.634-6.094.376-10.57-1.716zM70.011 30.39c-5.667-5.506-14.088-6.343-18.703-1.859l-9.064 8.811c3.362-.612 7.143.009 10.582 1.823l4.712-4.58c1.832-1.782 5.15-1.452 7.4.735s2.59 5.41.758 7.192l-5.923 5.757-3.895 3.785c-1.832 1.781-5.15 1.452-7.4-.735l-5.073 4.93c1.447 1.406 3.08 2.515 4.746 3.276 4.514 2.096 9.478 1.959 12.964-.57.335-.247.702-.526.993-.848l6.12-5.948 3.698-3.594c4.65-4.481 3.792-12.63-1.915-18.175z" fill="#fff"/>
</svg>
