<svg xmlns="http://www.w3.org/2000/svg" viewBox="0 0 216 218" height="218" width="216">
  <ellipse ry="109" rx="108" cy="109" cx="108" fill="#f9a825"/>
  <path d="M214.464 127.183l-61.92-62.628L91.457 79.85l6.014 5.58-31.85 43.842-4.123 19.673 68.719 66.88c42.386-8.75 77.622-44.348 84.247-88.642z" fill="#cb983c"/>
  <g fill="#fff">
    <path d="M152.544 64.555c-12.467-12.113-30.994-13.954-41.145-4.088L91.457 79.85c7.397-1.347 15.716.019 23.28 4.01l10.366-10.077c4.032-3.918 11.33-3.193 16.282 1.618 4.95 4.811 5.698 11.904 1.666 15.823l-13.03 12.665-8.568 8.327c-4.031 3.918-11.33 3.193-16.281-1.618l-11.16 10.846c3.183 3.093 6.774 5.532 10.442 7.208 9.93 4.611 20.851 4.308 28.519-1.255.736-.543 1.545-1.157 2.184-1.865l13.463-13.085 8.136-7.907c10.231-9.859 8.343-27.785-4.212-39.985z"/>
    <path d="M101.151 131.948l-9.935 9.657c-4.031 3.919-11.33 3.193-16.281-1.618-4.951-4.811-5.699-11.904-1.667-15.822l21.598-20.992c4.032-3.919 11.33-3.194 16.282 1.617l11.159-10.845c-3.183-3.093-6.773-5.532-10.442-7.208-10.436-4.893-22.037-4.272-29.687 2.218-.368.272-.728.622-1.016.902l-21.598 20.991c-10.151 9.867-8.255 27.872 4.212 39.985 12.466 12.114 30.994 13.955 41.145 4.088l19.486-19.197c-10.806 1.394-13.406.828-23.256-3.776z"/>
  </g>
</svg>
