<svg xmlns="http://www.w3.org/2000/svg" viewBox="0 0 213.74 162.43">
  <defs>
    <style>
      .a,.d{fill:#231f20}.b{fill:#b81237}.c{fill:#002f5e}.d,.e,.g{fill-rule:evenodd}.e,.f{fill:#febe10}.g{fill:#915b3d}.h{fill:#00a65e}.i{fill:#662d91}.j{fill:none}
    </style>
  </defs>
  <title>
    qu-logo
  </title>
  <path class="a" d="M135.73 67.79a9.17 9.17 0 0 0-2.37-.73 14.42 14.42 0 0 0-3.48-.11 39.52 39.52 0 0 0 2.56-14.87V23.59H82.35v28.49A39.56 39.56 0 0 0 84.91 67a14.46 14.46 0 0 0-3.48.11 9.17 9.17 0 0 0-2.37.73 9.4 9.4 0 0 1 .86 2.38 9 9 0 0 1 .22 4.26 9 9 0 0 1 5-.24s-2.14 2.48-2.87 3.34a2.17 2.17 0 0 0-.2 2.5c.07.14.16.27.24.4a31.31 31.31 0 0 0 7.33 8.07 27.85 27.85 0 0 0 8.63 4.64 30.29 30.29 0 0 0 18.25 0 27.87 27.87 0 0 0 8.63-4.64 31.15 31.15 0 0 0 7-7.5l.28-.43c.56-1.09.89-2.18-.1-3.3A3.75 3.75 0 0 1 132 77l-2.34-2.78a9 9 0 0 1 5 .24 9.1 9.1 0 0 1 .22-4.26 9.4 9.4 0 0 1 .85-2.41zM93.57 83.28A26.35 26.35 0 0 1 88 77.16l1.77-1.75q1 1.34 2.25 2.67a39.57 39.57 0 0 0 14.41 10.1 23.42 23.42 0 0 1-6.38-1.32 21.52 21.52 0 0 1-6.48-3.58zm27.65 0a21.48 21.48 0 0 1-6.5 3.59 23.54 23.54 0 0 1-6.37 1.32 39.59 39.59 0 0 0 14.41-10.1q1.24-1.33 2.24-2.67l1.77 1.74a26.43 26.43 0 0 1-5.55 6.12z"/>
  <path class="b" d="M107.4 87.6a37.14 37.14 0 0 1-14.92-10.14c-7.08-7.76-9.41-15.79-9.41-25.27v-27.9h48.66v27.9c0 9.47-2.33 17.5-9.41 25.27A37.15 37.15 0 0 1 107.4 87.6z"/>
  <path class="a" d="M90.85 32.1v21.54a26.33 26.33 0 0 0 5.34 16.1c6.39 8.22 11.2 9.2 11.2 9.2s4.81-1 11.2-9.2a26.33 26.33 0 0 0 5.34-16.1V32.1H90.85z"/>
  <path class="c" d="M123.24 36.77l-12 15.69 9.54 12.43a23.32 23.32 0 0 1-2.61 4.24c-.28.36-.55.7-.82 1l-9.9-12.91-9.97 12.94c-.27-.33-.54-.67-.82-1A23.25 23.25 0 0 1 94 64.89l9.55-12.43-12.01-15.71v-4H96l11.4 14.93 11.43-14.89h4.41v4z"/>
  <path class="b" d="M57.44 107c.63 9.76-2.64 18.21-11.28 19.69-10.17 1.69-16.34-7.18-17-16.36-.52-7.71 2.42-17.1 12.07-17.79C51.91 91.72 57 99.27 57.44 107zm-33.79 3.74a19.09 19.09 0 0 0 17.92 18.22 17.26 17.26 0 0 0-4.59.94c-1.05.42-1.42.53-2.21.9-.42.9-.95 1.53-1.37 2.37a19.22 19.22 0 0 1-1.95 2.74l.79.63 1.84-1.85c1.53-1.53 4.75-2.21 7.44-2.16 5.06.15 11.28 1.53 19.29 2.85s17.66 3.49 24.35 3.16c8.43-.42 10.12-3.22 11-3.64a23.74 23.74 0 0 1 .84-2.48 15.19 15.19 0 0 1 1.32-2.64l-.95-.48-.63.79c-2.37 3-6.75 3.8-11.65 4.12-6 .42-28-3.54-36.53-4.6l-5.9-.74a29 29 0 0 0 4.22-.32c10.49-1.37 16.66-10.45 16-21.59-.64-10.65-9.13-17.36-21.68-16.67-10.75.58-18.13 9.92-17.55 20.43z"/>
  <path class="b" d="M89 122.33a10.87 10.87 0 0 0 .26 3.07 1.78 1.78 0 0 0 1.69.73l2.17.16v1.58c-1.32 0-2.85-.15-4.32-.15s-3.06.1-4.43.15c.11-1.48.21-2.9.21-4.85L81 126.3a8.43 8.43 0 0 1-5.9 2.06c-7.43 0-7.43-4.75-7.43-9v-8.87a8.26 8.26 0 0 0-.37-3.27c-.31-.42-.84-.58-1.95-.58H64v-1.48a24.87 24.87 0 0 0 7.61-2.16l.48.22v15.57c0 4.17.9 6.39 5.74 6.39 3.43 0 6.7-3.54 6.7-6.07v-8.61a8.34 8.34 0 0 0-.37-3.27c-.32-.42-.84-.58-2-.58h-1.9v-1.48a29.78 29.78 0 0 0 8.22-2.17l.52.17v19.16zM104.15 104.7c3.8 0 5.58 4 5.58 8.93a77.76 77.76 0 0 1-12.54-.16c-.27-5.76 2.9-8.77 6.96-8.77zm.26-1.74a12.06 12.06 0 0 0-5.16 1.43A16.5 16.5 0 0 0 96 106.5c-2.43 1.9-3.8 5-3.8 10.08 0 7.13 4.22 12.2 12.18 12.2 3.59 0 8.06-2.32 8.43-3l1.05-1.8-.68-.53c-2 1.21-4 2.48-6.53 2.48-6.49 0-9.54-4.22-9.54-10.4h7.7a58.64 58.64 0 0 0 9.54-.74 16.58 16.58 0 0 0 .1-2.22c-.03-5.91-4.29-9.57-10.04-9.57zM128.35 104.7c3.79 0 5.58 4 5.58 8.93a77.88 77.88 0 0 1-12.55-.16c-.26-5.76 2.9-8.77 6.97-8.77zm.26-1.74a12.11 12.11 0 0 0-5.17 1.43 16.55 16.55 0 0 0-3.27 2.11c-2.43 1.9-3.8 5-3.8 10.08 0 7.13 4.22 12.2 12.18 12.2 3.59 0 8.07-2.32 8.44-3L138 124l-.68-.53c-2 1.21-4 2.48-6.54 2.48-6.48 0-9.54-4.22-9.54-10.4H129a58.62 58.62 0 0 0 9.55-.74 15.22 15.22 0 0 0 .11-2.22c-.04-5.93-4.31-9.59-10.05-9.59z"/>
  <path class="b" d="M147.22 122.33a11 11 0 0 0 .26 3.07 1.78 1.78 0 0 0 1.69.73l2.36.16v1.58c-1.84 0-3.95-.15-6.53-.15s-4.7.1-6.53.15v-1.57l2.37-.16a1.79 1.79 0 0 0 1.69-.73 10.93 10.93 0 0 0 .27-3.07v-11.88a8.2 8.2 0 0 0-.38-3.27c-.31-.42-.84-.58-1.95-.58h-2v-1.48a29.71 29.71 0 0 0 8.22-2.17l.48.22v4.49h.1l3.9-3.39c1.16-1 2.16-1.32 4.27-1.32 6.17 0 8.7 3.43 8.7 9.19v10.19a10.68 10.68 0 0 0 .27 3.07 1.78 1.78 0 0 0 1.69.73l2.16.16v1.58c-1.32 0-2.85-.15-4.32-.15s-3 .1-4.21.15v-15c0-4.38-2.48-6.7-6.07-6.7-3.21 0-6.47 2.8-6.47 5v11.19zM170.81 107.33a33.44 33.44 0 0 1-2.15 4.66l-2.06 1.71-.6-.35a29.65 29.65 0 0 0 1.45-5 27.46 27.46 0 0 0 .6-4.76 12 12 0 0 0 1.91-.75 13.6 13.6 0 0 0 1.81-1.05l.5.4a35.57 35.57 0 0 1-1.46 5.14zM173.76 120v2.16c0 3.28 3.74 4.49 6.8 4.49 3.32 0 6.16-1.95 6.16-4.8a3.37 3.37 0 0 0-2.52-3.48 73.69 73.69 0 0 1-7.76-2.11c-2.52-.95-4.48-2.53-4.48-5.75 0-5.7 5-7.71 9.91-7.71a20 20 0 0 1 6.81 1.32c-.16 1.9-.21 3.85-.27 6h-1.47v-1.22c0-2.74-3.11-4.33-6.12-4.33-4.48 0-5.16 2.48-5.16 4.28 0 2.27 1.73 3.49 5.74 4.17 6.28 1.05 9.23 2.64 9.23 6.75 0 5.81-5.8 8.87-11.65 8.87a21.38 21.38 0 0 1-7.38-1.27 33.78 33.78 0 0 0 .58-7.34h1.59zM105 135.65a1.84 1.84 0 0 0 2.14 2.1 1.87 1.87 0 0 0 2.16-2.14v-3.27c0-.83-.11-1-1.35-1V131h3.34v.42c-1.14 0-1.35.1-1.35.91v3.26c0 1.56-.46 3-3.13 3s-3.24-1-3.24-2.86v-3.54c0-.68-.41-.76-1.33-.76V131h3.94v.39c-1 0-1.21.2-1.21.64v3.66zM114.56 132c0-.49-.33-.62-1.4-.64V131h2.63c1.62 2 3.38 3.94 5 5.92v-4.72c0-.7-.46-.77-1.46-.77V131h3.55v.42c-1.2 0-1.46.1-1.46 1.17v4.39c0 .6.06 1.11.09 1.6l-1.27-.15-5.08-5.87v4.6c0 .76.16.83 1.37.83v.43h-3.46V138c1.22 0 1.46-.17 1.46-.92v-5zM126.36 132.22c0-.8-.38-.84-1.43-.84V131H129.21v.42c-1.18 0-1.43 0-1.43.84v4.72c0 .91.12 1 1.43 1v.43H124.93V138c1.17 0 1.43-.11 1.43-1v-4.72zM135.23 138.45l2.49-5.95c.36-.89.46-1.12 1.25-1.12V131h-2.95v.42c.77 0 1.14.09 1.14.46a1.7 1.7 0 0 1-.17.64l-1.73 4.27-1.65-4a5.32 5.32 0 0 1-.41-1c0-.35.29-.37 1.2-.37V131h-3.84v.42a1 1 0 0 1 1.19.68l2.68 6.39h.8zM141.62 132.43c0-1-.29-1.06-1.48-1.06V131h1.49c.55 0 1.16 0 1.73-.06s1.16-.06 1.73-.06a14.84 14.84 0 0 1 1.91.12 13.46 13.46 0 0 0-.19 1.82h-.44a6.32 6.32 0 0 0-.16-1.21 13 13 0 0 0-2.14-.15 6.26 6.26 0 0 0-1 .09v2.65h1.52c.73 0 .89-.17.89-1h.47v2.7h-.47c0-1-.13-1.14-1.51-1.14h-.9c0 1.21 0 2.21.06 2.92.43 0 .86.06 1.4.06a7.65 7.65 0 0 0 1.78-.18 6.49 6.49 0 0 0 .34-1.36h.42c0 .77-.06 1.47-.13 2.06-.63.06-1.41.08-2.16.08h-4.46V138c1.27 0 1.37-.18 1.37-1.26v-4.27zM149 138c1.14 0 1.42 0 1.42-.92v-4.75c0-.79-.13-.89-1.42-.89V131h4.68c1.41 0 2.46.38 2.46 1.63 0 1.41-1.37 1.77-2.13 2l2.43 2.83a1 1 0 0 0 .94.48v.38h-2l-3.18-3.66.06-.24h.58a1.59 1.59 0 0 0 1.68-1.58c0-1-.54-1.42-1.68-1.42a2.61 2.61 0 0 0-1 .15v5.6c0 .71.19.74 1.4.74v.43h-4.25V138zM163.73 132.82a1.27 1.27 0 0 0-.32-1.12 2 2 0 0 0-1.32-.36 1.49 1.49 0 0 0-1.7 1.41c0 2.38 4.38 0 4.38 3.13 0 1.48-1.43 2.66-3.47 2.66a4.57 4.57 0 0 1-2.14-.42 10.5 10.5 0 0 0 .09-1.73h.45c0 1.14.52 1.61 1.78 1.61a1.73 1.73 0 0 0 2-1.7c0-2.31-4.32.12-4.32-3.07 0-1.53 1.34-2.44 3-2.44a4.14 4.14 0 0 1 2.14.51 6.79 6.79 0 0 0-.13 1.51h-.44zM168.19 136.95c0 .91-.25 1-1.42 1v.42h4.29V138c-1.3 0-1.43-.11-1.43-1v-4.72c0-.82.26-.83 1.43-.83V131H166.78v.42c1 0 1.42 0 1.42.83v4.72zM174.47 138.38h4.16V138c-1.11 0-1.33-.17-1.33-.83v-5.54h.79c1.38 0 1.53.18 1.56.75v.61h.44l.06-2h-7.23l.06 2h.45v-.61c0-.57.18-.75 1.55-.75h.82v5.54c0 .73-.25.83-1.36.83v.43zM183.33 138.31H187.52v-.42c-1 0-1.37 0-1.37-1.06v-1.56a26.38 26.38 0 0 1 2.83-4.12v-.21h-1.08c-.57 1-1.71 3-2.06 3.57l-1.43-2.51a2.41 2.41 0 0 0-1.19-1.19c-.44.12-1.14.18-1.64.26v.42c.57 0 .75.09 1.42 1a31.08 31.08 0 0 1 1.73 2.71v2c0 .5-.22.73-1.4.73v.42z"/>
  <path class="d" d="M112.48 55.3a.71.71 0 0 1-.4-.62 1 1 0 0 0-.56-.81 2.75 2.75 0 0 0-.78-.09v-2.86a2.77 2.77 0 0 0 .79-.09 1 1 0 0 0 .56-.82.72.72 0 0 1 .4-.63.22.22 0 0 0-.11-.42 1.32 1.32 0 0 0-1.11.75l-.06.09a1.94 1.94 0 0 1-.48.43v-.79l-1.1-.52a2.66 2.66 0 0 1-.88-.15 1.41 1.41 0 0 0-1.35 0 1.41 1.41 0 0 0-1.35 0 2.65 2.65 0 0 1-.88.15l-1.1.52v.69h-.18a.67.67 0 0 0-.52-.63 1.08 1.08 0 0 0 0 1.88.67.67 0 0 0 .52-.63h.18v3.19h-.18a.67.67 0 0 0-.52-.63 1.08 1.08 0 0 0 0 1.88.67.67 0 0 0 .52-.63h.18v.84h2.69a.56.56 0 0 0 .63.46.56.56 0 0 0 .61-.46h2.69v-.93a1.93 1.93 0 0 1 .47.42l.1.11a1.31 1.31 0 0 0 1.1.74.228.228 0 0 0 .12-.44z"/>
  <path class="a" d="M88.38 30.46a1.29 1.29 0 0 0 1.08-.39 15.18 15.18 0 0 1 1.25-3.78 1.08 1.08 0 0 0-1.27.54.82.82 0 0 0-1 .9c1-.21.65.85-.19.69s-.76-1.22.05-.72c.23-.81-.23-1.17-.55-1.17a.57.57 0 1 0-1 0c-.32 0-.78.36-.55 1.17.82-.5.89.55.05.72s-1.16-.9-.19-.69a.82.82 0 0 0-1-.9 1.08 1.08 0 0 0-1.27-.54 15.13 15.13 0 0 1 1.25 3.78 1.29 1.29 0 0 0 1.08.39c.33 0 1 .06 1.1.05s.83-.01 1.16-.05zM92.54 72.85a1.29 1.29 0 0 0 1.08-.39 15.17 15.17 0 0 1 1.25-3.78 1.08 1.08 0 0 0-1.27.54.82.82 0 0 0-1 .89c1-.21.65.85-.19.69s-.76-1.22.05-.72c.23-.81-.23-1.18-.55-1.17a.57.57 0 1 0-1 0c-.32 0-.78.36-.55 1.17.82-.51.89.55.05.72s-1.16-.91-.19-.69a.82.82 0 0 0-1-.89 1.08 1.08 0 0 0-1.22-.54 15.13 15.13 0 0 1 1.25 3.78 1.29 1.29 0 0 0 1.08.39c.33 0 1 .06 1.1.05s.78-.02 1.11-.05zM108.47 84.78a1.29 1.29 0 0 0 1.08-.39 15.22 15.22 0 0 1 1.25-3.78 1.08 1.08 0 0 0-1.27.54.82.82 0 0 0-1 .9c1-.21.65.85-.19.69s-.76-1.22.05-.72c.23-.81-.23-1.17-.55-1.17a.57.57 0 1 0-1 0c-.32 0-.78.36-.55 1.17.82-.5.89.55.05.72s-1.16-.9-.19-.69a.82.82 0 0 0-1-.9 1.08 1.08 0 0 0-1.27-.54 15.2 15.2 0 0 1 1.25 3.78 1.29 1.29 0 0 0 1.08.39c.32 0 1 .06 1.1.05s.84-.01 1.16-.05zM124.48 72.85a1.29 1.29 0 0 0 1.08-.39 15.27 15.27 0 0 1 1.25-3.78 1.08 1.08 0 0 0-1.27.54.81.81 0 0 0-1 .89c1-.21.64.85-.19.69s-.76-1.22.05-.72c.23-.81-.22-1.18-.55-1.17a.57.57 0 1 0-1 0c-.32 0-.78.36-.55 1.17.82-.51.89.55.05.72s-1.16-.91-.19-.69a.81.81 0 0 0-1-.89 1.08 1.08 0 0 0-1.27-.54 15.27 15.27 0 0 1 1.25 3.78 1.29 1.29 0 0 0 1.08.39c.32 0 1 .06 1.1.05s.83-.02 1.16-.05zM88 52.68a1.29 1.29 0 0 0 1.08-.4 15.23 15.23 0 0 1 1.25-3.78 1.08 1.08 0 0 0-1.23.5.82.82 0 0 0-1 .9c1-.21.65.85-.19.69s-.76-1.22.05-.72c.23-.81-.23-1.18-.55-1.17a.57.57 0 1 0-1 0c-.32 0-.78.36-.55 1.17.82-.5.89.55.05.72s-1.16-.9-.19-.69a.82.82 0 0 0-1-.9 1.08 1.08 0 0 0-1.27-.54 15.21 15.21 0 0 1 1.25 3.78 1.29 1.29 0 0 0 1.08.4c.32 0 1 .06 1.1.05s.83.03 1.12-.01zM128.91 52.68a1.29 1.29 0 0 0 1.08-.4 15.2 15.2 0 0 1 1.25-3.78c-.39-.1-1.25.08-1.27.54a.82.82 0 0 0-1 .9c1-.21.65.85-.19.69s-.76-1.22.05-.72c.24-.81-.23-1.18-.55-1.17a.57.57 0 1 0-1 0c-.32 0-.78.36-.55 1.17.82-.5.89.55.05.72s-1.16-.9-.19-.69a.82.82 0 0 0-1-.9 1.08 1.08 0 0 0-1.27-.54 15.18 15.18 0 0 1 1.25 3.78 1.29 1.29 0 0 0 1.08.4c.33 0 1 .06 1.1.05s.83-.01 1.16-.05zM128.6 30.46a1.29 1.29 0 0 0 1.08-.39 15.18 15.18 0 0 1 1.25-3.78 1.08 1.08 0 0 0-1.27.54.82.82 0 0 0-1 .9c1-.21.65.85-.19.69s-.76-1.22.05-.72c.23-.81-.23-1.17-.55-1.17a.57.57 0 1 0-1 0c-.32 0-.78.36-.55 1.17.82-.5.89.55.05.72s-1.16-.9-.19-.69a.82.82 0 0 0-1-.9 1.09 1.09 0 0 0-1.27-.54 15.08 15.08 0 0 1 1.25 3.78 1.29 1.29 0 0 0 1.08.39c.32 0 1 .06 1.1.05s.84-.01 1.16-.05zM108.47 30.46a1.29 1.29 0 0 0 1.08-.39 15.23 15.23 0 0 1 1.25-3.78 1.08 1.08 0 0 0-1.27.54.82.82 0 0 0-1 .9c1-.21.65.85-.19.69s-.76-1.22.05-.72c.23-.81-.23-1.17-.55-1.17a.57.57 0 1 0-1 0c-.32 0-.78.36-.55 1.17.82-.5.89.55.05.72s-1.16-.9-.19-.69a.82.82 0 0 0-1-.9 1.08 1.08 0 0 0-1.27-.54 15.21 15.21 0 0 1 1.25 3.78 1.29 1.29 0 0 0 1.08.39c.32 0 1 .06 1.1.05s.84-.01 1.16-.05z"/>
  <path class="e" d="M104.07 50.33h-.44a.53.53 0 0 0-.27-.54.61.61 0 0 0-.27.66.62.62 0 0 0 .28.66.54.54 0 0 0 .27-.57h.43v-.21zM104.07 54.12h-.44a.53.53 0 0 0-.27-.54.61.61 0 0 0-.27.66.62.62 0 0 0 .28.66.54.54 0 0 0 .27-.57h.43v-.2z"/>
  <path class="f" d="M111.35 50.66a.76.76 0 0 0 .43-.66.92.92 0 0 1 .54-.78 1.09 1.09 0 0 0-.93.65l-.06.09a1.69 1.69 0 0 1-.61.56v.25a2.07 2.07 0 0 0 .63-.11zM111.33 54.76l.06.09a1.08 1.08 0 0 0 .92.64.91.91 0 0 1-.53-.78.75.75 0 0 0-.42-.65 2.05 2.05 0 0 0-.62-.07v.21a1.68 1.68 0 0 1 .59.56z"/>
  <path class="e" d="M107.6 49.07a1.17 1.17 0 0 1 1.17.06 2.57 2.57 0 0 0 .88.15v4.78a3.38 3.38 0 0 1-.89-.29 1.24 1.24 0 0 0-1.16-.08v-4.62zM105.15 49.29a2.57 2.57 0 0 0 .88-.15 1.18 1.18 0 0 1 1.17-.06v4.62a1.24 1.24 0 0 0-1.16.08 3.4 3.4 0 0 1-.89.29v-4.78zM110.02 49.41l.38.22v5.14l-.38-.4v-4.96zM110.16 55.06H108a1.83 1.83 0 0 0-.38-1 1.37 1.37 0 0 1 1.11.12 2.69 2.69 0 0 0 .79.26zM107.14 54a1.83 1.83 0 0 0-.38 1h-2.13l.6-.64a2.67 2.67 0 0 0 .79-.26 1.37 1.37 0 0 1 1.12-.1zM104.4 49.63l.38-.22v4.96l-.38.4v-5.14zM107.4 55.46a.26.26 0 0 1-.3-.25.69.69 0 0 1 0-.11 1.46 1.46 0 0 1 .31-.82 1.47 1.47 0 0 1 .31.82.87.87 0 0 1 0 .11.26.26 0 0 1-.3.25"/>
  <path class="f" d="M115 87.6a22.21 22.21 0 0 0 6.73-3.72 25.78 25.78 0 0 0 6.65-7.93 7.83 7.83 0 0 0 .53-1.53l.56.71 1.9 2.25s.17.18.35.42a2 2 0 0 1 .08 2.34 20.55 20.55 0 0 1-1.17 1.71 30.14 30.14 0 0 1-5.93 6.09 27.15 27.15 0 0 1-8.39 4.52 28.89 28.89 0 0 1-17.77 0 27.16 27.16 0 0 1-8.39-4.52 30.31 30.31 0 0 1-7-7.58c-.07-.1-.06-.12-.13-.22a1.81 1.81 0 0 1 0-2.26c.59-.75 2-2.38 2.56-3 .14-.17.32-.42.32-.42s.18.77.28 1a13.12 13.12 0 0 0 1.17 2.12 27.09 27.09 0 0 0 5.72 6.3A23 23 0 0 0 115 87.6z"/>
  <path class="f" d="M126.36 73.73a1.19 1.19 0 0 1 1.44-.46.87.87 0 0 1 .29.7 4.93 4.93 0 0 1-1 2.48l-1.66-1.64c.42-.52.57-.67.93-1.08zM129.57 67.71a13.61 13.61 0 0 1 3.68.06 8.2 8.2 0 0 1 1.51.4 12.28 12.28 0 0 0-.58 1.83 12.61 12.61 0 0 0-.41 3v.44a8.94 8.94 0 0 0-4.63.15 2.94 2.94 0 0 0-.87-.9 2.16 2.16 0 0 0-1.26-.13l.12-.19a44.62 44.62 0 0 0 2.44-4.66zM88.44 73.73a1.19 1.19 0 0 0-1.44-.47.85.85 0 0 0-.28.7 4.93 4.93 0 0 0 .95 2.48l1.66-1.64c-.38-.51-.56-.66-.89-1.07zM85.23 67.71a13.62 13.62 0 0 0-3.69.06 8.16 8.16 0 0 0-1.51.4A14.34 14.34 0 0 1 81 73v.44a8.94 8.94 0 0 1 4.63.15 3 3 0 0 1 .87-.9 2.16 2.16 0 0 1 1.26-.13l-.13-.19a44.6 44.6 0 0 1-2.4-4.66zM117.95 32.79h-21.1l10.56 13.68 10.54-13.68zM91.54 37.87v15.84a26 26 0 0 0 2.18 10.49l9-11.73zM97.92 70.77c5.46 6.4 9.47 7.46 9.47 7.46s4-1 9.47-7.44l-9.46-12.34zM112 52.46l9 11.73a26 26 0 0 0 2.18-10.49V37.88z"/>
  <ellipse class="f" cx="87.27" cy="29.92" rx="1.83" ry=".25"/>
  <path class="e" d="M87.27 29.23h-.86a5.6 5.6 0 0 0-1.11.2 10.26 10.26 0 0 0-1-2.82.63.63 0 0 1 .61.65.41.41 0 0 1 .77.19c-.54-.1-.64.42-.48.74a1.05 1.05 0 0 0 1.08.51 1 1 0 0 0 .84-.85c0-.36-.22-.81-.7-.53a.41.41 0 0 1 .65-.44.74.74 0 0 1 .16-.84.74.74 0 0 1 .16.84.41.41 0 0 1 .66.44c-.48-.28-.75.18-.7.53a1 1 0 0 0 .84.85 1.05 1.05 0 0 0 1.08-.51c.16-.32.07-.84-.48-.74a.41.41 0 0 1 .77-.19.63.63 0 0 1 .61-.65 10.26 10.26 0 0 0-1 2.82 5.58 5.58 0 0 0-1.11-.2h-.86z"/>
  <ellipse class="f" cx="91.43" cy="72.3" rx="1.83" ry=".25"/>
  <path class="e" d="M91.43 71.62h-.85a5.53 5.53 0 0 0-1.11.2 10.25 10.25 0 0 0-1-2.82.63.63 0 0 1 .61.65.41.41 0 0 1 .77.19c-.54-.1-.64.42-.48.74a1.05 1.05 0 0 0 1.08.51 1 1 0 0 0 .84-.85c0-.36-.22-.81-.7-.53a.41.41 0 0 1 .65-.44.75.75 0 0 1 .16-.84.75.75 0 0 1 .16.84.41.41 0 0 1 .66.44.47.47 0 0 0-.7.53 1 1 0 0 0 .84.85 1.05 1.05 0 0 0 1.08-.51c.16-.32.07-.84-.48-.74a.41.41 0 0 1 .77-.19.63.63 0 0 1 .63-.65 10.24 10.24 0 0 0-1 2.82 5.51 5.51 0 0 0-1.11-.2h-.86z"/>
  <ellipse class="f" cx="107.37" cy="84.24" rx="1.83" ry=".25"/>
  <path class="e" d="M107.37 83.55h-.86a5.66 5.66 0 0 0-1.11.2 10.27 10.27 0 0 0-1-2.82.63.63 0 0 1 .61.65.41.41 0 0 1 .77.19.47.47 0 0 0-.48.74 1.05 1.05 0 0 0 1.08.52 1 1 0 0 0 .84-.85c0-.36-.22-.82-.7-.53a.41.41 0 0 1 .65-.44.74.74 0 0 1 .16-.84.74.74 0 0 1 .16.84.41.41 0 0 1 .65.44c-.48-.28-.75.18-.7.53a1 1 0 0 0 .84.85 1.05 1.05 0 0 0 1.08-.52.47.47 0 0 0-.48-.74.41.41 0 0 1 .77-.19.63.63 0 0 1 .61-.65 10.27 10.27 0 0 0-1 2.82 5.66 5.66 0 0 0-1.11-.2h-.86z"/>
  <ellipse class="f" cx="123.37" cy="72.3" rx="1.83" ry=".25"/>
  <path class="e" d="M123.37 71.62h-.85a5.51 5.51 0 0 0-1.11.2 10.24 10.24 0 0 0-1-2.82.63.63 0 0 1 .62.65.41.41 0 0 1 .76.19c-.55-.1-.64.42-.48.74a1.06 1.06 0 0 0 1.08.51 1 1 0 0 0 .84-.85c0-.36-.23-.81-.7-.53a.41.41 0 0 1 .65-.44.75.75 0 0 1 .16-.84.75.75 0 0 1 .16.84.41.41 0 0 1 .65.44c-.48-.28-.75.18-.7.53a1 1 0 0 0 .84.85 1.06 1.06 0 0 0 1.08-.51c.16-.32.07-.84-.48-.74a.41.41 0 0 1 .76-.19.63.63 0 0 1 .65-.65 10.24 10.24 0 0 0-1 2.82 5.52 5.52 0 0 0-1.11-.2h-.86z"/>
  <ellipse class="f" cx="86.93" cy="52.14" rx="1.83" ry=".25"/>
  <path class="e" d="M86.93 51.45h-.86a5.65 5.65 0 0 0-1.11.2 10.24 10.24 0 0 0-1-2.82.63.63 0 0 1 .61.65.41.41 0 0 1 .77.19c-.54-.1-.64.42-.48.74a1.05 1.05 0 0 0 1.08.51 1 1 0 0 0 .84-.85c0-.36-.22-.81-.7-.53a.41.41 0 0 1 .65-.44.75.75 0 0 1 .16-.84.74.74 0 0 1 .16.84.41.41 0 0 1 .65.44c-.48-.28-.75.18-.7.53a1 1 0 0 0 .84.85 1.05 1.05 0 0 0 1.16-.49c.16-.32.07-.84-.48-.74a.41.41 0 0 1 .77-.19.63.63 0 0 1 .61-.65 10.24 10.24 0 0 0-1 2.82 5.65 5.65 0 0 0-1.11-.2h-.85z"/>
  <ellipse class="f" cx="127.8" cy="52.14" rx="1.83" ry=".25"/>
  <path class="e" d="M127.8 51.45h-.86a5.64 5.64 0 0 0-1.11.2 10.32 10.32 0 0 0-1-2.82.63.63 0 0 1 .61.65.41.41 0 0 1 .77.19c-.54-.1-.64.42-.48.74a1.05 1.05 0 0 0 1.08.51 1 1 0 0 0 .83-.85c0-.36-.22-.81-.7-.54a.41.41 0 0 1 .66-.44.75.75 0 0 1 .16-.84.74.74 0 0 1 .16.84.41.41 0 0 1 .65.44c-.48-.28-.75.18-.7.54a1 1 0 0 0 .84.85 1 1 0 0 0 1.08-.51c.16-.32.07-.84-.48-.74a.41.41 0 0 1 .77-.19.63.63 0 0 1 .61-.65 10.17 10.17 0 0 0-1 2.82 5.66 5.66 0 0 0-1.11-.2h-.86z"/>
  <ellipse class="f" cx="127.5" cy="29.92" rx="1.83" ry=".25"/>
  <path class="e" d="M127.5 29.23h-.85a5.56 5.56 0 0 0-1.11.2 10.33 10.33 0 0 0-1-2.82.63.63 0 0 1 .61.65.41.41 0 0 1 .77.19c-.55-.1-.64.42-.48.74a1.05 1.05 0 0 0 1.08.51 1 1 0 0 0 .84-.85c0-.36-.22-.81-.7-.53a.41.41 0 0 1 .65-.44.75.75 0 0 1 .16-.84.74.74 0 0 1 .16.84.41.41 0 0 1 .65.44c-.48-.28-.75.18-.7.53a1 1 0 0 0 1.91.34c.16-.32.07-.84-.48-.74a.41.41 0 0 1 .77-.19.63.63 0 0 1 .62-.65 10.18 10.18 0 0 0-1 2.82 5.59 5.59 0 0 0-1.11-.2h-.86z"/>
  <ellipse class="f" cx="107.37" cy="29.92" rx="1.83" ry=".25"/>
  <path class="e" d="M107.37 29.23h-.86a5.58 5.58 0 0 0-1.11.2 10.26 10.26 0 0 0-1-2.82.63.63 0 0 1 .61.65.41.41 0 0 1 .77.19c-.54-.1-.64.42-.48.74a1.05 1.05 0 0 0 1.08.51 1 1 0 0 0 .84-.85c0-.36-.22-.81-.7-.53a.41.41 0 0 1 .65-.44.74.74 0 0 1 .16-.84.74.74 0 0 1 .16.84.41.41 0 0 1 .65.44c-.48-.28-.75.18-.7.53a1 1 0 0 0 .84.85 1.05 1.05 0 0 0 1.08-.51c.16-.32.07-.84-.48-.74a.41.41 0 0 1 .77-.19.63.63 0 0 1 .61-.65 10.25 10.25 0 0 0-1 2.82 5.58 5.58 0 0 0-1.11-.2h-.86z"/>
  <path class="d" d="M111.41 40.68c-.06 0-1.62-1.61-1.62-1.61h.87a9.28 9.28 0 0 1-1.8-2.08s.49.06.9.07l-1.27-1.48a3.56 3.56 0 0 0 .63 0 8.11 8.11 0 0 1-.94-.88h.36a16.12 16.12 0 0 1-1.11-1.48 6.25 6.25 0 0 1-1.17 1.53 1.31 1.31 0 0 1 .42 0 14.83 14.83 0 0 1-1.35 1.48h.53a5.08 5.08 0 0 1-.76.89 5 5 0 0 1 .7 0 20 20 0 0 1-1.49 1.76 7 7 0 0 1 .76 0 10.57 10.57 0 0 1-1.32 1.37.75.75 0 0 0 .28.12 5.37 5.37 0 0 1-.62.47h1.2l-.22.25a11 11 0 0 0 2.63-.28v1.48a.45.45 0 0 1-.32.37c-.12.05-1.3.26-1.08.59a2.75 2.75 0 0 0 .42 0 2.61 2.61 0 0 0-.23.47c.06.12.65-.39.72-.27s-.58.52-.47.66.33-.28.41-.11.18.49.26.38.16-.65.28-.5a.6.6 0 0 1-.05.6c-.09.19-.07.52.11.28s.22.27.36.3.1-.63.36-.3.2-.1.11-.28a.6.6 0 0 1-.05-.6c.12-.15.2.39.28.5s.18-.2.26-.38.3.26.41.11-.57-.51-.47-.66.66.39.72.27a2.68 2.68 0 0 0-.23-.47 2.76 2.76 0 0 0 .42 0c.21-.33-1-.54-1.09-.59a.45.45 0 0 1-.32-.37V41a7.37 7.37 0 0 0 2.3-.09l-.29-.3a8.26 8.26 0 0 0 1.57.07z"/>
  <path class="g" d="M107.53 42.26v-1.35h-.11a.46.46 0 0 0-.17-.06v1.47a1 1 0 0 1-.89.78 1.69 1.69 0 0 1 1 .87 2.18 2.18 0 0 1 1-.87 1 1 0 0 1-.83-.84z"/>
  <path class="h" d="M107.44 33.73l.47.64h-.31a5.52 5.52 0 0 0 .66.8h-.54a12.42 12.42 0 0 0 1.28 1.47l-.76-.09a11.09 11.09 0 0 0 1.61 2.18h-.79l1.51 1.56c-.2 0-1.69-.24-1.69-.24l.54.56a6.53 6.53 0 0 1-1.79-.07 2 2 0 0 0-1.44 0 8.64 8.64 0 0 1-1.07.17l.23-.26h-1a1.85 1.85 0 0 0 .38-.32l-.35-.08a11.53 11.53 0 0 0 1.31-1.49s-.47 0-.67-.08c.38-.41 1.39-1.74 1.39-1.74l-.57-.06c.11-.14.62-.85.62-.85h-.38a7.62 7.62 0 0 0 1.11-1.38 1 1 0 0 1-.29 0c.18-.22.41-.52.54-.72z"/>
  <path class="a" d="M100.73 52.77s-1.1 3.47-3.42 2.7a.79.79 0 0 0-.73 1.09 1 1 0 0 0 .66.31 1.45 1.45 0 0 0 .13 1.59l-.72.86c-.11-.29-.74-2.06-1.34-2.13a1.12 1.12 0 0 0 .52-.52c0-1.05-.48-.91-.91-.89a2.47 2.47 0 0 1-2.14-.48c-1-.89-1-3-1-3s3.81.36 3.54 2.91c0 .2.43.48.41-.12a2.19 2.19 0 0 0-.32-1 1.43 1.43 0 0 0 .23-.34 1.54 1.54 0 0 0-.18-.75.31.31 0 0 0 .33-.35 1.33 1.33 0 0 1-1-.41.56.56 0 1 1-.87-.64 1.9 1.9 0 0 1-.73-2.26.83.83 0 0 1-.5-.73.83.83 0 0 1 .83-.3 1.9 1.9 0 0 1 1.92-1.4.56.56 0 1 1 1.08 0 1.9 1.9 0 0 1 1.92 1.4.83.83 0 0 1 .83.3.83.83 0 0 1-.5.73 1.9 1.9 0 0 1-.73 2.26.56.56 0 1 1-.87.63 1.11 1.11 0 0 1-.65.36.25.25 0 0 0 .19.13 1.54 1.54 0 0 0-.22.77c.06.15.41 0 .41 0a4.06 4.06 0 0 0-.41 1.35c0 .6.3.33.31.13a2.25 2.25 0 0 1 .91-1.9c1.05-.75 3.02-.3 3.02-.3zM96 50.1a.41.41 0 1 0-.41-.41.41.41 0 0 0 .41.41z"/>
  <path class="h" d="M93.59 49.09a.52.52 0 0 1-.53-.15c-.17-.17-.12-.35.12-.38a.52.52 0 0 1 .51.19.25.25 0 0 1-.1.34zM94.69 51.8a.52.52 0 0 1-.3.46c-.21.11-.37 0-.32-.24a.52.52 0 0 1 .34-.43.25.25 0 0 1 .28.21zM97.61 51.59a.51.51 0 0 1 .34.43c0 .24-.11.35-.32.23a.52.52 0 0 1-.3-.45.25.25 0 0 1 .28-.21zM98.31 48.75a.52.52 0 0 1 .51-.19c.24 0 .3.21.12.38a.52.52 0 0 1-.53.15.25.25 0 0 1-.1-.34zM95.83 47.2a.52.52 0 0 1 0-.55c.11-.22.29-.22.4 0a.52.52 0 0 1 0 .55.25.25 0 0 1-.4 0zM96.24 52.71l.1.13a1.58 1.58 0 0 0-.15.59.47.47 0 0 0 0 .19.4.4 0 0 0 .21.21 3.77 3.77 0 0 0-.23 1v.07a.52.52 0 0 0 .33.6 1.23 1.23 0 0 0-.31.81 1.17 1.17 0 0 0 .06.37.85.85 0 0 0 .52.42 1.38 1.38 0 0 0 0 .34 2.46 2.46 0 0 0 .25 1l-.26.31a4.85 4.85 0 0 0-.89-1.55 1 1 0 0 0 .26-.39.93.93 0 0 0 0-.31 1.12 1.12 0 0 0-.2-.64l-.11-.16a.63.63 0 0 0 .19-.51v-.08a2.24 2.24 0 0 0-.26-.93 1.29 1.29 0 0 0 .25-.29.45.45 0 0 0 0-.19 1.47 1.47 0 0 0-.12-.52.68.68 0 0 0 .19-.39zM93.12 53.95l.56.58a5.31 5.31 0 0 1-1 .06 3.14 3.14 0 0 1-.22-.59 2.47 2.47 0 0 0 .66-.05zM92.53 52.81a3.88 3.88 0 0 1 2.09 1.1 1.58 1.58 0 0 1 .37 1v.24a12.81 12.81 0 0 1-2.46-2.34zM93.94 54.77a5.73 5.73 0 0 0 .81.64h-.13A1.84 1.84 0 0 1 93 55l-.12-.12a3.5 3.5 0 0 0 1.06-.11zM92.26 53l.61.71a3.76 3.76 0 0 1-.49 0 6.5 6.5 0 0 1-.12-.71zM99.12 53a3.52 3.52 0 0 0-.11.74.76.76 0 0 0 0 .09l-.69.51a2.11 2.11 0 0 1 0-.23 4.78 4.78 0 0 1 .13-1 3.12 3.12 0 0 1 .67-.11zM100 53l-.68.58a4.24 4.24 0 0 1 .12-.6zM100.09 53.34A3.67 3.67 0 0 1 98.66 55a1.5 1.5 0 0 1-1.09.12 13.71 13.71 0 0 0 2.52-1.78zM97.2 55a1.89 1.89 0 0 1 .8-1.64l.15-.09a4.74 4.74 0 0 0-.09.87 2.28 2.28 0 0 0 0 .41 4.12 4.12 0 0 1-.85.45z"/>
  <path class="b" d="M94.19 49.05a1 1 0 0 1 .71-.74h.1v-.1a1 1 0 0 1 1-.45c-.14-.64-.77-.75-1.52-.21s-.86 1.17-.29 1.5zM94.36 50.41a.57.57 0 0 1 0-.1.7.7 0 0 1 0-.11l-.09-.07a.8.8 0 0 1-.21-.57 1.49 1.49 0 0 1 .07-.44c-.66-.06-1 .5-.67 1.38s.86 1.16 1.35.72a1 1 0 0 1-.45-.81zM97 48.2v.11h.12a1 1 0 0 1 .71.74c.57-.34.48-1-.27-1.51s-1.37-.43-1.51.21a1 1 0 0 1 .95.45zM97.85 49.12a1.49 1.49 0 0 1 .07.43.8.8 0 0 1-.21.57l-.09.07a.6.6 0 0 1 0 .11.7.7 0 0 1 0 .1 1.05 1.05 0 0 1-.49.8c.49.44 1.07.16 1.36-.72s.01-1.42-.64-1.36zM96.1 51.43l-.1-.06-.1.06a1 1 0 0 1-1-.18c-.26.61.18 1.07 1.11 1.07s1.36-.46 1.1-1.06a1 1 0 0 1-1.01.17z"/>
  <path class="b" d="M96 48.12c-.61 0-.86.34-.58.76-.31-.4-.71-.26-.9.32s.06.93.54.78c-.48.17-.47.6 0 1s.9.23.91-.27c0 .51.42.63.92.27s.5-.78 0-1c.49.14.73-.21.54-.79s-.59-.72-.9-.31c.34-.42.08-.76-.53-.76zm-.74 1.56a.75.75 0 1 1 .75.75.75.75 0 0 1-.75-.75z"/>
  <path class="a" d="M115.44 70.41c-2.81.3-2-1-1.15-1.34-1.09-.18-2.62-2.62-2.62-2.62s.2 2.86-2.31 3.56c2.12.62.85 2.59-.48 2.17a2.1 2.1 0 0 1-.69 2.26s-.25.1-.25-.55c0-1 0-2.38.22-2.64a1.63 1.63 0 0 0 .35-1.4c-.28.43-.57.65-.57 0v-1.22a2.31 2.31 0 0 0 1.8-1.44 2.12 2.12 0 0 1 1-.55 2.61 2.61 0 0 1-1-.61 2.68 2.68 0 0 1 .46-1 2.46 2.46 0 0 1-1.07.16 2.49 2.49 0 0 0-.42-.28l.84-2.91h-.05a4.24 4.24 0 0 0-4.2 0h-.05l.86 2.85a2.39 2.39 0 0 0-.41.28 2.46 2.46 0 0 1-1.06-.17 2.48 2.48 0 0 1 .44 1 2.51 2.51 0 0 1-1 .62 2.12 2.12 0 0 1 1 .54 2.31 2.31 0 0 0 1.8 1.44v2.34c0 .62-.29.4-.57 0a1.63 1.63 0 0 0 .35 1.4c.26.27.22.61.22 1.62 0 .65-.25.55-.25.55a2.1 2.1 0 0 1-.69-2.26c-1.34.42-2.61-1.55-.48-2.17-2.51-.7-2.31-3.56-2.31-3.56s-1.54 2.44-2.62 2.62c.83.3 1.65 1.64-1.15 1.34a4 4 0 0 1 1.59 2.66 1.67 1.67 0 0 1 2.46 1.62c1.27-.7 3.26-.18 3.36 2.39l1.2.27c.1-2.57 2.17-3.36 3.44-2.66a1.67 1.67 0 0 1 2.46-1.62 4 4 0 0 1 1.55-2.69z"/>
  <path class="i" d="M106.42 64.73l-.76-2.54a3.94 3.94 0 0 1 3.48 0l-.76 2.54a2.85 2.85 0 0 0-1.94 0z"/>
  <path class="h" d="M113.16 70.08a.73.73 0 0 1 0-.16 1.16 1.16 0 0 1 .41-.8 7.35 7.35 0 0 1-1.62-1.66 3.61 3.61 0 0 1-1.74 2.54 1.39 1.39 0 0 1 .59.81 1.18 1.18 0 0 1 0 .28 1.41 1.41 0 0 1-.48 1 1.63 1.63 0 0 1-1 .43 1.93 1.93 0 0 1 0 .2 2.81 2.81 0 0 1-.94 1.93h-.06a.47.47 0 0 1-.43-.05 1 1 0 0 1-.3-.82v-.3-.37c0-1.21 0-1.83.32-2.11a.74.74 0 0 0 .22-.4.47.47 0 0 1-.18 0 .68.68 0 0 1-.36-.71v-1.57a2 2 0 0 0 1.85-1.39 3.38 3.38 0 0 1 .53-.3.91.91 0 0 1-.57-.46 1 1 0 0 1 .17-.72 3.73 3.73 0 0 1-.58.08 2.39 2.39 0 0 0-3.2 0 3.93 3.93 0 0 1-.56-.08 1 1 0 0 1 .16.69.88.88 0 0 1-.56.49 3.19 3.19 0 0 1 .51.29 2 2 0 0 0 1.87 1.41v2.57a.68.68 0 0 1-.36.71.43.43 0 0 1-.18 0 .72.72 0 0 0 .22.4 1.51 1.51 0 0 1 .32 1.21v.66a1 1 0 0 1-.3.82.47.47 0 0 1-.43.05h-.06a2.81 2.81 0 0 1-.94-1.93 1.94 1.94 0 0 1 0-.2 1.63 1.63 0 0 1-1-.43 1.41 1.41 0 0 1-.47-1 1.17 1.17 0 0 1 0-.28 1.39 1.39 0 0 1 .59-.81 3.61 3.61 0 0 1-1.73-2.57 7.35 7.35 0 0 1-1.62 1.66 1.16 1.16 0 0 1 .41.8.66.66 0 0 1 0 .16 1.23 1.23 0 0 1-1.36.71 4.72 4.72 0 0 1 1 1.79 2.24 2.24 0 0 1 1.62.27 1.83 1.83 0 0 1 .87 1.32 2.52 2.52 0 0 1 2 .19 3 3 0 0 1 1.37 2.43l.56.12a3.2 3.2 0 0 1 1.51-2.49 2.55 2.55 0 0 1 1.91-.25 1.82 1.82 0 0 1 .87-1.33 2.24 2.24 0 0 1 1.62-.27 4.71 4.71 0 0 1 1-1.79 1.23 1.23 0 0 1-1.47-.77z"/>
  <path class="a" d="M112.12 68.29l-.28.12a4.28 4.28 0 0 1 .27 1.48v.48a4.55 4.55 0 0 1-.5 1.41 3.21 3.21 0 0 0-.46-1.77l-.22.17a2.53 2.53 0 0 1 .41 1.59v.47a6.83 6.83 0 0 1-1.93 1.45l.08.31a9.52 9.52 0 0 0 1.86-1.32 4.05 4.05 0 0 1 2.2-1.32v-.31a3.83 3.83 0 0 0-1.57.73 3.89 3.89 0 0 0 .42-1.34 4.27 4.27 0 0 0 0-.51 4.57 4.57 0 0 0-.28-1.64zM102.23 69.88a4.31 4.31 0 0 0 0 .51 3.92 3.92 0 0 0 .42 1.34 3.82 3.82 0 0 0-1.57-.73v.31a4.05 4.05 0 0 1 2.2 1.32 9.56 9.56 0 0 0 1.88 1.37l.13-.28a6.85 6.85 0 0 1-1.93-1.45v-.47a2.53 2.53 0 0 1 .41-1.59l-.24-.21a3.21 3.21 0 0 0-.46 1.77 4.55 4.55 0 0 1-.5-1.41v-.48a4.26 4.26 0 0 1 .27-1.48l-.28-.12a4.57 4.57 0 0 0-.33 1.6z"/>
  <path class="d" d="M109 67.37l.09-.13-.73-.57.77-.59-.13-.13-.82.62-.7-.55.81-.61-.17-.07-.77.58-.74-.59-.17.06.83.61-.7.53-.78-.62-.08.13.74.58-.73.55.09.13.77-.58.7.55-.75.57.17.06.71-.53.69.55.17-.06-.74-.58.7-.53zm-1.59-.17l-.7-.55.7-.53.7.55z"/>
  <path class="a" d="M117.67 46.9a.66.66 0 0 1-.18.2 2.56 2.56 0 0 0-1 1.58 1.4 1.4 0 0 0 0 .38 2.48 2.48 0 0 0 .72 1.52 2.13 2.13 0 0 1 .22.3.1.1 0 0 1 0 .09 1 1 0 0 1-.72-.47 1.14 1.14 0 0 0-.84-.36 1.78 1.78 0 0 0-1.27.6l-.06.06a3.8 3.8 0 0 1-.37.36.77.77 0 0 0-.4.6.64.64 0 0 0 .39.49 1.36 1.36 0 0 1 .22.15 1.72 1.72 0 0 1 .21.26 1.52 1.52 0 0 0 1.3.78 2.05 2.05 0 0 0 1.41-.62 1.22 1.22 0 0 1 .27-.21h.05a.17.17 0 0 1 0 .13.51.51 0 0 1 0 .2 3.2 3.2 0 0 0-.24 1.22 2 2 0 0 0 .11.72 1.17 1.17 0 0 1 .1.46 2.54 2.54 0 0 1-.06.47v.21a3.48 3.48 0 0 0-.11.73 1.09 1.09 0 0 0 .09.46.9.9 0 0 0 .8.62.91.91 0 0 0 .8-.62 1.94 1.94 0 0 0 0-1.2v-.21a1.4 1.4 0 0 1 0-.92 2.91 2.91 0 0 0-.13-1.94.28.28 0 0 1 0-.34h.05a1.34 1.34 0 0 1 .27.21 2 2 0 0 0 1.4.62 1.52 1.52 0 0 0 1.3-.78 1.88 1.88 0 0 1 .21-.26 1.34 1.34 0 0 1 .22-.15.63.63 0 0 0 .39-.49.76.76 0 0 0-.4-.6 3.73 3.73 0 0 1-.37-.36l-.05-.06a1.79 1.79 0 0 0-1.27-.6 1.14 1.14 0 0 0-.84.36 1 1 0 0 1-.72.47.11.11 0 0 1 0-.09 2.56 2.56 0 0 1 .22-.3 2.48 2.48 0 0 0 .73-1.52 1.5 1.5 0 0 0 0-.38 2.57 2.57 0 0 0-1-1.58.64.64 0 0 1-.18-.2.635.635 0 0 0-1.27.01z"/>
  <path class="h" d="M118.19 57.55a.54.54 0 0 1-.48-.41 2.24 2.24 0 0 1 .09-1.2 1.74 1.74 0 0 0-.05-1.12 2.57 2.57 0 0 1 .12-1.67.58.58 0 0 0-.11-.75c-.58-.49-.82.71-1.95.71a1.75 1.75 0 0 1-1.27-.95c-.33-.3-.8-.3-.24-.72a4.71 4.71 0 0 0 .47-.46 1.11 1.11 0 0 1 1.61-.25c.93 1 1.4.49 1.34.08s-1.16-1.08-.91-2a2.23 2.23 0 0 1 .87-1.38 1.84 1.84 0 0 1 .52-.48 1.81 1.81 0 0 1 .52.48 2.23 2.23 0 0 1 .87 1.38c.25 1-.86 1.7-.91 2s.41.92 1.34-.08a1.11 1.11 0 0 1 1.61.25 4.6 4.6 0 0 0 .47.46c.57.41.1.42-.24.72a1.75 1.75 0 0 1-1.28.95c-1.13 0-1.37-1.2-2-.71a.58.58 0 0 0-.1.75 2.58 2.58 0 0 1 .12 1.67 1.74 1.74 0 0 0-.05 1.12 2.22 2.22 0 0 1 .09 1.2.54.54 0 0 1-.48.41z"/>
  <path class="a" d="M121.55 51.92c-.35-.14-.28.47-1.21.47a1.32 1.32 0 0 1-.65-.15 1 1 0 0 0 .94.43c.73-.02 1.22-.67.92-.75zM116.84 51.87c-.35-.14-.28.47-1.21.47a1.32 1.32 0 0 1-.65-.15 1 1 0 0 0 .95.43c.72-.01 1.21-.62.91-.75zM118.54 49.93c-.14-.35.47-.28.47-1.21a1.32 1.32 0 0 0-.15-.64 1.05 1.05 0 0 1 .43.94c-.01.72-.63 1.21-.75.91zM89.13 82.21a.53.53 0 0 1 .3-.2.45.45 0 0 0 .23-.01v-.18l-.41-.44c-.1-.09-.15-.07-.18 0a.49.49 0 0 0 0 .22.64.64 0 0 1-.18.36l-1.43 1.5a.52.52 0 0 1-.3.19.51.51 0 0 0-.23 0s0 .11.06.19l.4.44c.1.09.15.07.18 0a.49.49 0 0 0 0-.22.53.53 0 0 1 .18-.31zM123.95 85.19a.84.84 0 0 0-.05-.9c-.29-.37-.7-.52-1.37 0l-.5.4c-.1.08-.09.14-.06.17a.27.27 0 0 0 .2.06.4.4 0 0 1 .32.17l1.3 1.67a.53.53 0 0 1 .15.34.5.5 0 0 0 0 .23s.08.06.19 0l.46-.38a.94.94 0 0 0 .26-1.44.76.76 0 0 0-.9-.32zm-1.19-.69c.12-.15.42-.27.76.17a.47.47 0 0 1 0 .75l-.1.06-.5-.64a.31.31 0 0 1-.17-.34zm1.71 2.12c-.1.07-.18 0-.28-.1l-.65-.83.11-.09a.56.56 0 0 1 .81.21.52.52 0 0 1 .01.8zM87.28 82.07a.94.94 0 0 0 1.16-.17 1 1 0 0 0 0-1.49 1.92 1.92 0 0 1-.44-.52 3.17 3.17 0 0 1-.11-.3c0-.09-.08-.08-.12-.05a.32.32 0 0 0 0 .24 1.39 1.39 0 0 1 0 .37 1.1 1.1 0 0 1-.37.63l-1.19 1.29a.52.52 0 0 1-.3.2.53.53 0 0 0-.22.05v.18l.42.5c.09.09.14.07.18 0a.5.5 0 0 0 0-.23.47.47 0 0 1 .16-.34l.55-.56a1.21 1.21 0 0 0 .28.2zm.72-1.22a.35.35 0 0 1 .28-.17c.11.09.31.37-.13.86s-.65.36-.79.26a.47.47 0 0 1-.11-.13zM113.45 92.07a.49.49 0 0 1-.16-.32l-.43-2a.51.51 0 0 1 0-.36.48.48 0 0 0 .08-.21s0-.08-.18-.06l-.56.13c-.13 0-.14.08-.13.13a.48.48 0 0 0 .16.16.5.5 0 0 1 .16.32l.43 2a.51.51 0 0 1 0 .36.5.5 0 0 0-.08.21s0 .08.18.06l.56-.13c.13 0 .14-.08.13-.13a.48.48 0 0 0-.16-.16zM93.67 88.6l1.11-1.73a.51.51 0 0 1 .22-.25.46.46 0 0 0 .21-.09s0-.09-.08-.17l-.44-.36c-.11-.07-.16 0-.18 0a.49.49 0 0 0 0 .23.54.54 0 0 1-.12.34l-1.13 1.76a.52.52 0 0 1-.26.25.47.47 0 0 0-.21.09s0 .09.08.17l.5.29c.11.07.16 0 .18 0a.49.49 0 0 0 0-.23.52.52 0 0 1 .12-.3zM126 85.34a.51.51 0 0 1-.29-.21l-1.35-1.6a.55.55 0 0 1-.17-.33.5.5 0 0 0 0-.23s-.08-.05-.18 0l-.43.39c-.1.09-.08.15-.05.18a.44.44 0 0 0 .22.06.51.51 0 0 1 .29.21l1.35 1.59a.56.56 0 0 1 .17.33.5.5 0 0 0 0 .23s.08.05.18 0l.43-.39c.1-.09.09-.14.06-.18a.44.44 0 0 0-.23-.05zM128 83.24a.49.49 0 0 1-.31-.19l-1.47-1.48a.55.55 0 0 1-.19-.32.53.53 0 0 0 0-.24h-.18l-.41.44c-.09.1-.08.16 0 .19a.49.49 0 0 0 .23 0 .51.51 0 0 1 .31.19l1.47 1.48a.53.53 0 0 1 .19.32.52.52 0 0 0 0 .24s.09 0 .18-.05l.41-.44c.09-.1.08-.16 0-.19a.45.45 0 0 0-.23.05z"/>
  <path class="a" d="M115.06 89.14a.62.62 0 0 1 0-.39.37.37 0 0 0 .07-.22s0-.08-.17 0l-.38.11c-.12 0-.14.1-.13.14a.54.54 0 0 0 .16.15.57.57 0 0 1 .16.34l.32 1.29a13.3 13.3 0 0 0-.9-1.1 2 2 0 0 0-1.23-.77.33.33 0 0 0-.36.12c0 .09 0 0 .2.11a1.6 1.6 0 0 1 .57.39 1.77 1.77 0 0 1 .22.41l.41 1.85a.53.53 0 0 1 0 .37.48.48 0 0 0-.08.22s0 .08.17 0l.38-.1c.13 0 .14-.08.13-.14a.44.44 0 0 0-.16-.15.54.54 0 0 1-.16-.34l-.28-1.54.24.29c.64.77 1 1.21 1.1 1.38s.21.33.34.25a.33.33 0 0 0 0-.31zM92.58 84.9a.53.53 0 0 0 .22-.07s0-.09-.07-.18l-.3-.25c-.09-.06-.14-.06-.17 0a.57.57 0 0 0 0 .23.52.52 0 0 1-.16.32l-.83 1a13.88 13.88 0 0 0 .35-1.41 2.34 2.34 0 0 0-.09-1.49.34.34 0 0 0-.3-.23c-.07.05 0 0 0 .23a1.68 1.68 0 0 1 0 .54.86.86 0 0 1-.16.4l-1.41 1.68a.54.54 0 0 1-.29.21.54.54 0 0 0-.22.07s0 .09.06.17l.3.26c.1.08.14.07.18 0a.51.51 0 0 0 0-.23.53.53 0 0 1 .16-.32l1.2-1.44c0 .17-.08.36-.13.56-.24 1-.43 1.58-.5 1.78s-.14.37 0 .43a.31.31 0 0 0 .32-.16l1.56-1.91a.52.52 0 0 1 .28-.19zM112.52 92.43a3.51 3.51 0 0 1-.59-.85 2.13 2.13 0 0 1-.16-.35 1 1 0 0 0-.91-1.73l-.56.07c-.13 0-.15.07-.14.12a.45.45 0 0 0 .14.17.53.53 0 0 1 .13.34l.25 2a.53.53 0 0 1 0 .36.49.49 0 0 0-.1.21s0 .09.17.08l.56-.07a.14.14 0 0 0 .15-.14.48.48 0 0 0-.15-.15.53.53 0 0 1-.13-.34l-.07-.58a1.12 1.12 0 0 0 .26 0c.05.1.16.28.32.52a1.44 1.44 0 0 0 .67.63c.27.05.36-.05.36-.14s-.05-.07-.2-.15zM111 91.24l-.14-1.11a.55.55 0 0 1 0-.35c.13 0 .53 0 .62.63s-.18.78-.31.81H111zM103.17 89.36l-.61-.13c-.13 0-.16 0-.17.07a.49.49 0 0 0 .09.21.59.59 0 0 1 .05.43l-.31 2a.42.42 0 0 1-.21.32.34.34 0 0 0-.15.17s0 .1.14.12l.6.12c.3.06 1.27.08 1.52-1.45.12-.81.05-1.67-.95-1.86zm.4 1.61c-.16 1-.46 1.38-.78 1.32a.12.12 0 0 1-.13-.17L103 90c0-.24.11-.3.2-.29.45.02.48.55.37 1.29zM105.42 89.62c-.42 0-1 .4-1 1.65s.3 1.71.84 1.73 1-.48 1-1.69-.36-1.65-.84-1.69zm.28 1.76c0 .78-.19 1.37-.47 1.35s-.36-.48-.31-1.54c0-.89.24-1.27.46-1.25s.35.67.32 1.45zM107.89 92c0 .11 0 .22-.08.36-.1.33-.24.46-.41.43s-.4-.43-.4-1.49c0-.89.16-1.27.35-1.27a.79.79 0 0 1 .33.67c0 .11 0 .22.16.19s.1 0 .09-.18 0-.57 0-.77-.08-.17-.13-.17a.53.53 0 0 1-.16 0 .75.75 0 0 0-.3-.09c-.44 0-.89.49-.88 1.69s.37 1.65.89 1.66a1 1 0 0 0 .72-1c.02-.24-.14-.23-.18-.03zM109.79 89.64l-.76.08h-.64a.23.23 0 0 0-.26.19v.62c0 .09 0 .14.08.14a.19.19 0 0 0 .14-.2.44.44 0 0 1 .29-.4h.22l.14 2.27a.53.53 0 0 1-.06.36.49.49 0 0 0-.16.2c0 .09 0 .09.16.08h.66c.13 0 .15-.06.15-.11a.7.7 0 0 0-.18-.18.52.52 0 0 1-.1-.34l-.18-2.35h.17a.32.32 0 0 1 .3.34c0 .15.05.17.11.16s.1-.09.1-.2v-.52c0-.1.03-.16-.18-.14zM93.65 85.77l.14.1a.31.31 0 0 1 0 .45c-.08.12-.06.16 0 .19s.13 0 .21-.09l.34-.42c.07-.07.09-.15 0-.26l-.64-.43-.7-.4c-.13-.09-.14 0-.24 0s-.36.38-.42.45-.07.12 0 .16a.19.19 0 0 0 .23-.07.44.44 0 0 1 .48-.12l.18.13-1.38 1.94a.52.52 0 0 1-.28.23.73.73 0 0 0-.25.06s0 .09.07.17l.61.41c.11.07.16 0 .19 0a.3.3 0 0 0 0-.25.43.43 0 0 1 .14-.33zM121.65 88.69a.53.53 0 0 1-.26-.26l-1.23-2 .14-.09a.32.32 0 0 1 .43.17c.09.12.13.12.18.09s0-.12 0-.23l-.23-.48c0-.09-.07-.18-.26-.06s-.36.26-.63.42-.48.27-.61.34-.12.15-.07.27.23.48.28.57.09.11.14.08a.19.19 0 0 0 0-.24.43.43 0 0 1 .05-.49l.18-.12 1.23 2a.56.56 0 0 1 .12.35.8.8 0 0 0 0 .25s.07.07.18 0l.55-.35c.11-.07.1-.13.08-.17a.74.74 0 0 0-.27-.05zM101.22 88.91l-.75-.22-.67-.21a.18.18 0 0 0-.26.11c-.06.11-.21.48-.24.57s0 .14 0 .16a.19.19 0 0 0 .2-.14.4.4 0 0 1 .41-.28l.21.06-.71 2.26a.51.51 0 0 1-.18.31.73.73 0 0 0-.22.14s0 .1.12.13l.66.2h.18a.33.33 0 0 0-.1-.23.52.52 0 0 1 0-.36l.71-2.26h.16a.36.36 0 0 1 .17.46v.19c0 .01.12 0 .17-.16l.21-.48c.1-.16.15-.16-.07-.25zM129 82.09a.48.48 0 0 1-.31-.19L127 80.18l.11-.14a.31.31 0 0 1 .46 0c.11.1.15.09.19 0a.21.21 0 0 0-.07-.24c-.06-.07-.26-.31-.35-.41s-.15-.12-.26 0-.28.38-.48.63l-.43.5c-.1.12-.17.2-.06.34l.4.51c.06.07.09.1.15 0s0-.16 0-.26a.51.51 0 0 1-.07-.53l.14-.18 1.65 1.72a.59.59 0 0 1 .2.33.87.87 0 0 0 0 .28s.08 0 .17-.05l.43-.53c.08-.11.06-.16 0-.2a.67.67 0 0 0-.18.14z"/>
  <path class="a" d="M89.46 85.3c0-.06-.08-.07-.15-.06a1.08 1.08 0 0 1-.35 0 1.32 1.32 0 0 1-.62-.42.14.14 0 0 1 0-.2l.83-.91.24.29a.37.37 0 0 1 .13.23.35.35 0 0 0 0 .29c.08.08.16 0 .39-.29s.24-.29.17-.35a.37.37 0 0 0-.27 0 .32.32 0 0 1-.21-.12l-.24-.23.57-.63a.17.17 0 0 1 .26 0l.22.21a.37.37 0 0 1 .13.34.77.77 0 0 0-.07.3.1.1 0 0 0 .18 0c.11-.13.3-.33.37-.4a.13.13 0 0 0 0-.22c-.24-.21-.25-.21-.52-.48l-.54-.54c-.1-.09-.15-.07-.18 0a.51.51 0 0 0 0 .23.55.55 0 0 1-.18.32l-1.5 1.54a.59.59 0 0 1-.35.2.41.41 0 0 0-.21 0v.18l.49.47.48.46a.47.47 0 0 0 .67 0 .3.3 0 0 0 .26-.21zM99.22 89c.06-.15.15-.42.19-.51s0-.14-.09-.19c-.31-.11-.31-.1-.67-.24l-.71-.3h-.18a.48.48 0 0 0 0 .22.53.53 0 0 1 0 .36l-.72 2a.63.63 0 0 1-.36.28.3.3 0 0 0-.14.1s0 .1.11.15l.7.28.65.25c.28.11.43 0 .66-.3s.1-.2.08-.24-.1 0-.17 0a1 1 0 0 1-.32.16 1.18 1.18 0 0 1-.74-.16.14.14 0 0 1-.06-.19l.4-1.09.31.12a.35.35 0 0 1 .21.13.32.32 0 0 0 .08.25c.11 0 .15-.1.26-.35s.11-.36 0-.39a.38.38 0 0 0-.24.13.29.29 0 0 1-.24 0l-.31-.12.31-.84a.17.17 0 0 1 .22-.14.79.79 0 0 1 .55.35 1.45 1.45 0 0 0 0 .39c.1.05.17.03.22-.11zM85.84 81.58s1-1.46 1.26-1.85a1.59 1.59 0 0 0 .31-1c0-.23-.14-.36-.21-.33s0 .12-.05.28A1.49 1.49 0 0 1 87 79a.42.42 0 0 1-.24.22l-2 .93a1.65 1.65 0 0 1-.35.1.51.51 0 0 0-.23 0s-.06.08 0 .18l.21.28c.08.09.14.08.17 0a.57.57 0 0 0 .08-.21.6.6 0 0 1 .36-.12l.31-.14.51.65-.22.32a.43.43 0 0 1-.28.23.56.56 0 0 0-.24 0s-.06.08 0 .17l.33.43c.08.09.14.08.17 0a.24.24 0 0 0 .07-.04 1 1 0 0 1 .19-.42zm-.3-1.45l1.15-.53-.69 1.06zM117.89 90.66a1.49 1.49 0 0 1-.28-.27s-1.08-1.46-1.32-1.74a1.54 1.54 0 0 0-.85-.55c-.23 0-.39 0-.39.08s.13.08.25.14a1.44 1.44 0 0 1 .34.23.88.88 0 0 1 .2.45l.16 2a1.13 1.13 0 0 1-.08.43.35.35 0 0 0 0 .19s.06.08.17 0l.39-.14c.12 0 .12-.1.11-.14a.58.58 0 0 0-.18-.14.61.61 0 0 1-.12-.34v-.38l.75-.28.23.31a.42.42 0 0 1 .13.33.52.52 0 0 0 0 .22s.06.08.17 0L118 91c.11 0 .12-.1.1-.14a.48.48 0 0 0-.21-.2zm-1.69-.42l-.06-1.11.66.87zM95.6 86.36c-.08.07 0 .15.06.28a1.2 1.2 0 0 1 .06.45.47.47 0 0 1-.14.29l-1.48 1.49a1.52 1.52 0 0 1-.32.22.48.48 0 0 0-.19.12s0 .09.08.16l.33.18c.11.06.16 0 .18 0a.59.59 0 0 0 0-.23.57.57 0 0 1 .16-.32l.27-.27.71.39-.08.37a.41.41 0 0 1-.17.31.37.37 0 0 0-.19.11s0 .09.08.16l.5.24c.11.06.16 0 .18 0a.31.31 0 0 0 0-.23 1.08 1.08 0 0 1 0-.36s.36-1.72.43-2.12a1.53 1.53 0 0 0-.15-1c-.13-.2-.27-.29-.32-.24zm-.22 2.51l-.58-.32.81-.81zM123.72 87.25a1.45 1.45 0 0 1-.33-.19s-1.35-1.12-1.64-1.33a1.46 1.46 0 0 0-.94-.3.34.34 0 0 0-.36.18c0 .11.14 0 .27.07a1.38 1.38 0 0 1 .4.14.62.62 0 0 1 .25.35l.56 1.93a1.65 1.65 0 0 1 0 .39.36.36 0 0 0 0 .23s.07.06.18 0l.32-.21c.1-.08.1-.13.07-.17a.59.59 0 0 0-.21-.1.42.42 0 0 1-.19-.29l-.1-.36.67-.47.33.2a.46.46 0 0 1 .21.31.47.47 0 0 0 0 .23s.07.06.18 0l.43-.34c.1-.08.1-.13.07-.17a.43.43 0 0 0-.17-.1zm-1.73.06l-.31-1.07.84.69zM127.12 83.37a.12.12 0 0 0-.09.14 1.74 1.74 0 0 1 0 .45.76.76 0 0 1-.25.51c-.05.07-.13.08-.22 0l-1.45-1.68a.56.56 0 0 1-.18-.33.55.55 0 0 0 0-.23s-.08-.05-.18 0l-.4.39c-.09.09-.08.14 0 .18a.46.46 0 0 0 .21.06.54.54 0 0 1 .29.21l1.35 1.56a.57.57 0 0 1 .17.33.51.51 0 0 0 0 .23s.08.05.17 0l.14-.13.27-.26.43-.43a.78.78 0 0 0-.13-.83.21.21 0 0 0-.13-.17z"/>
  <path class="a" d="M85 79.8a1.52 1.52 0 0 0 .36-1.22 1.52 1.52 0 0 1 .22-1.06.33.33 0 0 1 .51 0 .84.84 0 0 1 0 .65c0 .12-.13.22 0 .28s.12 0 .21-.11.28-.31.39-.44.11-.16.05-.2a.41.41 0 0 1-.19-.08c-.08-.09-.16-.24-.23-.33a.77.77 0 0 0-1.1 0 1.58 1.58 0 0 0-.3 1.31 1 1 0 0 1-.24.87.41.41 0 0 1-.64 0 .57.57 0 0 1 0-.62c.08-.17.31-.41.17-.48a.74.74 0 0 0-.48.33.75.75 0 0 0-.33.48c.06.09.15 0 .24.09a1.47 1.47 0 0 0 .26.5.83.83 0 0 0 1.1.03zM119.19 88.27a1.28 1.28 0 0 1-.91-.46.34.34 0 0 1 .11-.5.73.73 0 0 1 .58.17c.11.05.15.14.25.08s0-.13-.05-.23l-.31-.48c0-.06-.12-.14-.17-.1a.46.46 0 0 1-.11.17c-.1.06-.25.1-.35.15a.78.78 0 0 0-.22 1.08 1.42 1.42 0 0 0 1.12.59.94.94 0 0 1 .73.43.43.43 0 0 1-.11.63.61.61 0 0 1-.61-.1c-.12-.07-.2-.28-.31-.2s.08.34.14.46a.72.72 0 0 0 .36.43c.11-.05 0-.15.14-.21a1.34 1.34 0 0 0 .51-.14.9.9 0 0 0 .25-1.17 1.33 1.33 0 0 0-1.04-.6zM130.54 80.08h-.06a1.37 1.37 0 0 1-.34-.12s-1.52-.84-1.83-1a1.22 1.22 0 0 0-.94-.09.33.33 0 0 0-.29.27c0 .1.14 0 .27 0a1 1 0 0 1 .52.09.75.75 0 0 1 .24.25l1 1.89a1.4 1.4 0 0 1 .14.39.56.56 0 0 0 .07.23h.16l.23-.3c.07-.1.06-.16 0-.19a.49.49 0 0 0-.21 0 .48.48 0 0 1-.22-.23l-.24-.43.48-.62.32.17a.4.4 0 0 1 .25.25.58.58 0 0 0 .06.23h.16l.34-.44c.17-.33-.04-.36-.11-.35zm.13.15a.1.1 0 0 0 .06 0c.09-.1 0-.17.06-.27a2.14 2.14 0 0 0 .37-.34 1 1 0 0 0-.16-1.25 1.25 1.25 0 0 0-1.15-.27 1.14 1.14 0 0 1-1-.13.41.41 0 0 1-.06-.56.64.64 0 0 1 .59 0c.12 0 .18.09.26 0s0-.14-.13-.22l-.44-.38c-.06 0-.15-.1-.19 0a.62.62 0 0 1-.05.22c-.07.1-.2.19-.28.29a.93.93 0 0 0 .13 1.21 1.26 1.26 0 0 0 1.23.19.84.84 0 0 1 .82.18.54.54 0 0 1 .1.7.52.52 0 0 1-.52.07c-.13 0-.28-.21-.35-.09s.14.29.28.43a2.46 2.46 0 0 0 .32.29.24.24 0 0 0 .11-.07zm-1.74.29l-.54-1 .92.5z"/>
  <path class="j" d="M.19 138.85h23.58v23.58H.19zM190.16 0h23.58v23.58h-23.58zM190.16 138.85h23.58v23.58h-23.58zM0 0h23.58v23.58H0z"/>
</svg>
