<svg xmlns="http://www.w3.org/2000/svg" xmlns:xlink="http://www.w3.org/1999/xlink" width="433.5" height="28" viewBox="0 0 433.5 28">
  <defs>
    <path id="a" d="M0 0h433.5v28H0z"/>
  </defs>
  <clipPath id="b">
    <use xlink:href="#a" overflow="visible"/>
  </clipPath>
  <path d="M19.41 24.872a55.998 55.998 0 0 1-6.385-2.279 3.59 3.59 0 0 0-1.128-.241c-3.648-.24-7.057-2.928-7.057-8.209 0-4.847 3.072-8.496 7.897-8.496 4.945 0 7.657 3.744 7.657 8.16 0 3.673-1.704 6.266-3.84 7.225v.097c1.248.36 2.64.647 3.912.912l-1.056 2.831zm-6.769-5.425c2.448 0 3.889-2.328 3.889-5.496 0-2.952-1.393-5.4-3.889-5.4S8.705 11 8.705 14.023c-.024 3.072 1.464 5.424 3.912 5.424h.024zm17.88-13.536v9.312c0 2.785 1.056 4.201 2.928 4.201 1.921 0 2.976-1.344 2.976-4.201V5.911h3.649v9.073c0 4.992-2.52 7.368-6.745 7.368-4.08 0-6.48-2.256-6.48-7.416V5.911h3.672zm26.424 9.336h-5.953v3.841h6.649v3H47.32V5.911h9.985v3h-6.313v3.36h5.953zm16.896 0h-5.953v3.841h6.649v3H64.216V5.911h9.985v3h-6.313v3.36h5.953zm7.27 6.841V5.911h4.272l3.361 5.928a46.974 46.974 0 0 1 2.64 5.544h.072c-.24-2.136-.312-4.32-.312-6.768V5.911h3.361v16.177h-3.841l-3.456-6.24c-.96-1.729-2.016-3.817-2.808-5.713l-.073.024c.097 2.136.144 4.417.144 7.056v4.873h-3.36zm24.523-16.609c-.744 2.328-1.8 4.68-2.88 6.48l-2.208.216c.72-2.064 1.344-4.368 1.656-6.48l3.432-.216zm5.664 12.84c.984.505 2.496 1.009 4.057 1.009 1.679 0 2.568-.697 2.568-1.752 0-1.009-.769-1.585-2.712-2.281-2.689-.936-4.441-2.424-4.441-4.775 0-2.761 2.304-4.873 6.121-4.873 1.824 0 3.168.384 4.128.816l-.816 2.953a7.677 7.677 0 0 0-3.384-.769c-1.584 0-2.353.72-2.353 1.561 0 1.031.913 1.488 3 2.28 2.857 1.056 4.201 2.544 4.201 4.824 0 2.712-2.088 5.04-6.529 5.04-1.848 0-3.672-.504-4.584-1.008l.744-3.025zm29.261-12.408v9.312c0 2.785 1.056 4.201 2.928 4.201 1.921 0 2.976-1.344 2.976-4.201V5.911h3.649v9.073c0 4.992-2.52 7.368-6.745 7.368-4.08 0-6.48-2.256-6.48-7.416V5.911h3.672zm16.799 16.177V5.911h4.272l3.361 5.928a46.974 46.974 0 0 1 2.64 5.544h.072c-.24-2.136-.312-4.32-.312-6.768V5.911h3.36v16.177h-3.84l-3.456-6.24c-.96-1.729-2.016-3.817-2.808-5.713l-.073.024c.097 2.136.144 4.417.144 7.056v4.873h-3.36zm20.64-16.177h3.672v16.177h-3.672zm14.736 16.177l-5.185-16.177h4.009l1.968 6.84c.552 1.921 1.056 3.769 1.44 5.784h.072a70.788 70.788 0 0 1 1.465-5.712l2.064-6.912h3.888l-5.449 16.177h-4.272zm25.153-6.841h-5.953v3.841h6.648v3h-10.32V5.911h9.984v3h-6.312v3.36h5.953zm7.27-9.12c1.176-.192 2.929-.336 4.873-.336 2.399 0 4.08.359 5.231 1.272.961.768 1.488 1.896 1.488 3.384 0 2.065-1.464 3.481-2.855 3.985v.072c1.128.455 1.752 1.535 2.16 3.023.504 1.824 1.008 3.937 1.319 4.561h-3.744c-.264-.48-.647-1.776-1.128-3.769-.432-2.017-1.128-2.567-2.617-2.592h-1.104v6.36h-3.624V6.127zm3.624 6.96h1.439c1.825 0 2.905-.912 2.905-2.328 0-1.488-1.008-2.232-2.688-2.256-.888 0-1.392.072-1.656.12v4.464zm14.808 5.232c.984.505 2.496 1.009 4.057 1.009 1.68 0 2.568-.697 2.568-1.752 0-1.009-.769-1.585-2.713-2.281-2.688-.936-4.44-2.424-4.44-4.775 0-2.761 2.305-4.873 6.121-4.873 1.824 0 3.168.384 4.128.816l-.815 2.953a7.677 7.677 0 0 0-3.384-.769c-1.584 0-2.354.72-2.354 1.561 0 1.031.912 1.488 3.001 2.28 2.855 1.056 4.2 2.544 4.2 4.824 0 2.712-2.089 5.04-6.528 5.04-1.849 0-3.673-.504-4.585-1.008l.744-3.025zm16.92-12.408h3.673v16.177h-3.673zm14.04 3.072h-4.344V5.911h12.433v3.072h-4.416v13.105h-3.673zm17.779 13.105v-6.625l-5.112-9.552h4.177l1.656 3.888c.504 1.176.84 2.04 1.248 3.096h.048c.36-1.008.744-1.944 1.224-3.096l1.633-3.888h4.104l-5.329 9.433v6.744h-3.649zm23.64-16.177h3.673v13.105h6.432v3.072h-10.105zm16.296 0h3.674v16.177h-3.674zm10.871.215c.96-.192 2.904-.336 4.728-.336 2.233 0 3.602.216 4.777.913 1.128.6 1.944 1.704 1.944 3.168 0 1.44-.84 2.784-2.664 3.456v.048c1.848.504 3.216 1.896 3.216 3.984 0 1.465-.672 2.616-1.68 3.433-1.177.937-3.145 1.464-6.36 1.464-1.801 0-3.145-.12-3.961-.24V6.126zm3.624 6.192h1.2c1.921 0 2.952-.791 2.952-1.991 0-1.225-.936-1.873-2.592-1.873-.792 0-1.249.049-1.561.097v3.767zm0 7.178c.36.047.793.047 1.417.047 1.655 0 3.12-.647 3.12-2.328 0-1.631-1.465-2.279-3.288-2.279h-1.249v4.56zm14.904-13.369c1.176-.192 2.929-.336 4.873-.336 2.399 0 4.08.359 5.232 1.272.96.768 1.487 1.896 1.487 3.384 0 2.065-1.464 3.481-2.855 3.985v.072c1.128.455 1.752 1.535 2.16 3.023.504 1.824 1.008 3.937 1.319 4.561h-3.744c-.264-.48-.647-1.776-1.128-3.769-.432-2.017-1.128-2.567-2.617-2.592h-1.104v6.36h-3.624V6.127zm3.624 6.96h1.44c1.824 0 2.904-.912 2.904-2.328 0-1.488-1.008-2.232-2.688-2.256-.888 0-1.392.072-1.656.12v4.464zm18.441 4.849l-1.152 4.152h-3.792l4.944-16.178h4.801l5.016 16.178h-3.936l-1.249-4.152h-4.632zm4.104-2.737l-1.008-3.432c-.288-.96-.576-2.16-.816-3.121h-.048c-.24.961-.481 2.185-.744 3.121l-.96 3.432h3.576zm11.951-9.072c1.176-.192 2.929-.336 4.873-.336 2.398 0 4.08.359 5.232 1.272.96.768 1.487 1.896 1.487 3.384 0 2.065-1.464 3.481-2.855 3.985v.072c1.128.455 1.752 1.535 2.159 3.023.505 1.824 1.009 3.937 1.32 4.561h-3.744c-.264-.48-.647-1.776-1.128-3.769-.432-2.017-1.128-2.567-2.617-2.592h-1.104v6.36h-3.624V6.127zm3.624 6.96h1.44c1.824 0 2.904-.912 2.904-2.328 0-1.488-1.008-2.232-2.688-2.256-.888 0-1.392.072-1.656.12v4.464zm17.976 9.001v-6.625l-5.112-9.552h4.177l1.656 3.888c.504 1.176.84 2.04 1.248 3.096h.048c.36-1.008.744-1.944 1.224-3.096l1.633-3.888h4.104l-5.329 9.433v6.744h-3.649z" clip-path="url(#b)" fill="#b81237"/>
</svg>
