<svg xmlns="http://www.w3.org/2000/svg" width="439.987" height="407.987" viewBox="0 0 439.98666 407.98666">
  <g shape-rendering="crispEdges">
    <path d="M271.733 167.987V23.72h144.534v144.533H271.733v-.133z" fill="#fab80a"/>
    <path d="M183.733 367.987V223.72h144.52v144.532h-144.52v-.133z" fill="#b91134"/>
    <path d="M31.733 167.987V23.72h144.534v144.533H31.733v-.133z" fill="#0f2d56"/>
    <path d="M208.159 223.988v-23.721H103.746V167.72h71.987v-24.001h56.547v80.536h-24.121v-.134z" fill="#fccd52"/>
    <path d="M208.159 239.987V223.72h24.12v16.532h-24.12v-.133z" fill="#e37b22"/>
    <path d="M103.746 167.987V95.733h48.534v47.986h23.987v24.534h-72.52v-.133z" fill="#937948"/>
    <path d="M247.733 119.987v-23.72h-72V24.253h-23.986V-.267h144.521v24.52h-24.001v96h-24.534v-.133z" fill="#ce4f5b"/>
    <path d="M271.467 120.253v-96.8h25.068v97.067h-25.068v-.133z" fill="#cd422f"/>
    <path d="M151.747 96V23.72h24.52v72.547h-24.52v-.134z" fill="#7a2143"/>
    <path d="M175.467 144.252V95.467h73.066v25.053h-15.986v23.999h-57.08v-.134z" fill="#cd463d"/>
    <path d="M151.747 143.985V95.733h24.52v48.519h-24.52v-.133z" fill="#af3539"/>
    <path d="M327.72 248v-23.745h-79.987v-80.536h24.534v24.001h104.012v80.547H327.72v-.134z" fill="#425583"/>
    <path d="M271.733 167.987v-24.268h24.002V119.72h80.544v48.533H271.733v-.133z" fill="#444b5d"/>
    <path d="M231.747 263.985V239.72h15.986v-15.999h80.52v24.546h-31.986v15.985h-64.52v-.133z" fill="#3f2b4f"/>
    <path d="M231.747 223.988v-80.27h16.52v80.537h-16.52v-.134z" fill="#444e69"/>
    <path d="M231.747 239.987V223.72h16.52v16.532h-16.52v-.133z" fill="#434059"/>
    <path d="M247.733 119.72h24.534v24.532h-24.534V119.72z" fill="#40385e"/>
    <path d="M271.733 119.72h24.535v24.532h-24.535V119.72z" fill="#413554"/>
    <path d="M231.747 119.72h16.52v24.532h-16.52V119.72z" fill="#413657"/>
    <path d="M295.733 392v-24.28h31.987V263.719h48.025v-15.986h64.508v144.534h-144.52v-.133z" fill="#fde5a5"/>
    <path d="M295.733 367.987V263.719h32.52v104.534h-32.52v-.133z" fill="#cd422f"/>
    <path d="M327.72 263.985v-16.252h48.559v16.519H327.72v-.133z" fill="#747073"/>
    <path d="M295.733 263.985v-16.252h32.52v16.519h-32.52v-.133z" fill="#6e4b50"/>
    <path d="M143.733 344v-79.747h-80v-64.52h40.547v39.987h79.987v104.547h-40.534v-.133z" fill="#e69f9e"/>
    <path d="M183.733 344V239.72h24.959v104.547h-24.959v-.133z" fill="#b91134"/>
    <path d="M103.746 239.987v-40.254h104.946v24.522h-24.425v15.998h-80.52v-.133z" fill="#e48647"/>
    <path d="M183.733 239.987V223.72h24.959v16.532h-24.959v-.133z" fill="#d4552c"/>
    <path d="M-.267 407.987V263.72h64.534v80.014h80v64.52H-.267v-.134z" fill="#9299bb"/>
    <path d="M63.733 344v-80.28h80.534v80.547H63.733v-.133z" fill="#896c89"/>
  </g>
</svg>
