<svg xmlns="http://www.w3.org/2000/svg" width="465" height="70" viewBox="0 0 122 18">
  <g shape-rendering="crispEdges">
  <path d="M12.234 7.568v-6.49h6.501V7.58h-6.5v-.006z" fill="#fab80a"/>
  <path d="M8.276 16.564v-6.49h6.5v6.502h-6.5v-.006z" fill="#b91134"/>
  <path d="M1.44 7.568v-6.49h6.5V7.58h-6.5v-.006z" fill="#0f2d56"/>
  <path d="M9.375 10.087V9.02H4.678V7.556h3.238v-1.08h2.544V10.1H9.375v-.006z" fill="#fccd52"/>
  <path d="M9.375 10.806v-.731h1.085v.743H9.375v-.006z" fill="#e37b22"/>
  <path d="M4.678 7.568v-3.25h2.183v2.158h1.08V7.58H4.677v-.006z" fill="#937948"/>
  <path d="M11.155 5.409V4.342H7.916v-3.24H6.837V0h6.5v1.103h-1.079V5.42h-1.103v-.006z" fill="#ce4f5b"/>
  <path d="M12.222 5.42V1.068h1.128v4.366h-1.128v-.006z" fill="#cd422f"/>
  <path d="M6.837 4.33V1.079H7.94v3.263H6.837v-.006z" fill="#7a2143"/>
  <path d="M7.904 6.5V4.306h3.287v1.127h-.72v1.08H7.905v-.007z" fill="#cd463d"/>
  <path d="M6.837 6.488v-2.17H7.94V6.5H6.837v-.006z" fill="#af3539"/>
  <path d="M14.753 11.167v-1.068h-3.598V6.476h1.103v1.08h4.679v3.623h-2.184v-.006z" fill="#425583"/>
  <path d="M12.234 7.568V6.476h1.08v-1.08h3.623V7.58h-4.703v-.006z" fill="#444b5d"/>
  <path d="M10.436 11.886v-1.092h.719v-.72h3.622v1.105h-1.44v.719h-2.901v-.006z" fill="#3f2b4f"/>
  <path d="M10.436 10.087v-3.61h.743v3.622h-.743v-.006z" fill="#444e69"/>
  <path d="M10.436 10.806v-.731h.743v.743h-.743v-.006z" fill="#434059"/>
  <path d="M11.155 5.397h1.103V6.5h-1.103z" fill="#40385e"/>
  <path d="M12.234 5.397h1.104V6.5h-1.104z" fill="#413554"/>
  <path d="M10.436 5.397h.743V6.5h-.743z" fill="#413657"/>
  <path d="M13.314 17.644v-1.092h1.439v-4.678h2.16v-.72h2.901v6.502h-6.5v-.006z" fill="#fde5a5"/>
  <path d="M13.314 16.564v-4.69h1.463v4.702h-1.463v-.006z" fill="#cd422f"/>
  <path d="M14.753 11.886v-.731h2.184v.743h-2.184v-.006z" fill="#747073"/>
  <path d="M13.314 11.886v-.731h1.463v.743h-1.463v-.006z" fill="#6e4b50"/>
  <path d="M6.477 15.485v-3.587H2.879V8.996h1.823v1.798H8.3v4.703H6.477v-.006z" fill="#e69f9e"/>
  <path d="M8.276 15.485v-4.69H9.4v4.702H8.276v-.006z" fill="#b91134"/>
  <path d="M4.678 10.806v-1.81h4.72v1.103H8.3v.72H4.678v-.007z" fill="#e48647"/>
  <path d="M8.276 10.806v-.731H9.4v.743H8.276v-.006z" fill="#d4552c"/>
  <path d="M0 18.363v-6.49h2.903v3.6H6.5v2.902H0v-.006z" fill="#9299bb"/>
  <path d="M2.879 15.485v-3.611H6.5v3.623H2.879v-.006z" fill="#896c89"/>
</g>
<g>
  <path clip-path="url(#b)" d="M-250.178-9.108a13.271 13.271 0 0 1-1.513-.54.85.85 0 0 0-.267-.057c-.865-.057-1.673-.694-1.673-1.945 0-1.15.728-2.014 1.872-2.014 1.172 0 1.815.887 1.815 1.934 0 .87-.404 1.485-.91 1.712v.023c.295.086.625.154.927.216zm-1.604-1.285c.58 0 .922-.552.922-1.303 0-.7-.33-1.28-.922-1.28-.591 0-.933.58-.933 1.297-.005.728.347 1.286.928 1.286zm4.238-3.208v2.207c0 .66.25.995.694.995.455 0 .705-.318.705-.995v-2.207h.865v2.15c0 1.183-.597 1.746-1.599 1.746-.967 0-1.536-.534-1.536-1.757v-2.14zm6.262 2.212h-1.41v.91h1.575v.712h-2.446v-3.834h2.366v.71h-1.496v.797h1.411zm4.004 0h-1.41v.91h1.575v.712h-2.446v-3.834h2.367v.71h-1.496v.797h1.41zm1.723 1.622v-3.834h1.013l.796 1.405a11.133 11.133 0 0 1 .626 1.314h.017a14.26 14.26 0 0 1-.074-1.604v-1.115h.797v3.834h-.91l-.82-1.48c-.227-.409-.477-.904-.665-1.353l-.018.005c.023.506.035 1.047.035 1.672v1.155zm5.812-3.937a7.63 7.63 0 0 1-.682 1.536l-.524.051c.171-.489.319-1.035.393-1.536zm1.343 3.043c.233.12.591.24.961.24.398 0 .609-.166.609-.416 0-.239-.182-.375-.643-.54-.637-.222-1.052-.575-1.052-1.132 0-.654.546-1.155 1.45-1.155.432 0 .751.091.979.194l-.194.7a1.82 1.82 0 0 0-.802-.183c-.375 0-.558.17-.558.37 0 .244.217.353.711.54.678.25.996.603.996 1.144 0 .642-.495 1.194-1.547 1.194-.438 0-.87-.12-1.087-.239zm6.934-2.94v2.207c0 .66.25.995.694.995.456 0 .706-.318.706-.995v-2.207h.865v2.15c0 1.183-.598 1.746-1.599 1.746-.967 0-1.536-.534-1.536-1.757v-2.14zm3.982 3.834v-3.834h1.012l.797 1.405a11.133 11.133 0 0 1 .625 1.314h.017a14.262 14.262 0 0 1-.073-1.604v-1.115h.796v3.834h-.91l-.82-1.48c-.227-.409-.477-.904-.665-1.353l-.017.005c.023.506.034 1.047.034 1.672v1.155zm4.891-3.834h.87v3.834h-.87zm3.493 3.834l-1.229-3.834h.95l.467 1.62c.13.456.25.894.34 1.372h.018a16.777 16.777 0 0 1 .347-1.354l.49-1.638h.92l-1.29 3.834zm5.961-1.622h-1.41v.91h1.575v.712h-2.446v-3.834h2.366v.71h-1.496v.797h1.411zm1.723-2.161c.279-.046.694-.08 1.155-.08.568 0 .967.085 1.24.302.227.182.352.45.352.802 0 .49-.347.825-.676.944v.017c.267.108.415.364.512.717.119.432.238.933.312 1.08h-.887c-.063-.113-.154-.42-.268-.893-.102-.478-.267-.608-.62-.614h-.261v1.507h-.86v-3.782zm.859 1.65h.34c.433 0 .69-.217.69-.552 0-.353-.24-.53-.638-.535-.21 0-.33.017-.392.028zm3.51 1.24c.233.12.59.239.96.239.399 0 .61-.166.61-.416 0-.239-.183-.375-.644-.54-.637-.222-1.052-.575-1.052-1.132 0-.654.546-1.155 1.45-1.155.433 0 .752.091.98.194l-.194.7a1.82 1.82 0 0 0-.802-.183c-.375 0-.558.17-.558.37 0 .244.216.353.711.54.677.25.996.603.996 1.144 0 .642-.495 1.194-1.547 1.194-.439 0-.87-.12-1.087-.239zm4.01-2.941h.87v3.834h-.87zm3.327.728h-1.03v-.728h2.947v.728h-1.047v3.106h-.87zm4.213 3.106v-1.57l-1.211-2.264h.99l.392.921c.12.279.2.484.296.734h.011c.086-.239.177-.46.29-.734l.387-.921h.973l-1.263 2.235v1.599zm5.603-3.834h.87v3.106h1.525v.728h-2.395zm3.862 0h.87v3.834h-.87zm2.577.05c.227-.045.688-.079 1.12-.079.53 0 .854.051 1.132.216.268.143.46.404.46.751 0 .342-.198.66-.63.82v.01c.438.12.762.45.762.945 0 .347-.16.62-.398.813-.28.223-.746.347-1.508.347-.427 0-.745-.028-.938-.056zm.858 1.468h.285c.455 0 .7-.187.7-.472 0-.29-.222-.444-.615-.444a2.36 2.36 0 0 0-.37.023v.893zm0 1.701c.086.011.188.011.336.011.392 0 .74-.153.74-.551 0-.387-.348-.54-.78-.54h-.296zm3.533-3.168c.278-.046.694-.08 1.154-.08.569 0 .967.085 1.24.302.228.182.353.45.353.802 0 .49-.347.825-.677.944v.017c.268.108.415.364.512.717.12.432.24.933.313 1.08h-.888c-.062-.113-.153-.42-.267-.893-.102-.478-.267-.608-.62-.614h-.262v1.507h-.859v-3.782zm.858 1.65h.342c.432 0 .688-.217.688-.552 0-.353-.239-.53-.637-.535-.21 0-.33.017-.393.028zm4.371 1.149l-.273.984h-.899l1.172-3.835h1.138l1.189 3.835h-.933l-.296-.984zm.973-.649l-.24-.813c-.067-.228-.136-.512-.193-.74h-.011c-.057.228-.114.518-.176.74l-.228.813zm2.832-2.15c.279-.046.694-.08 1.155-.08.568 0 .967.085 1.24.302.227.182.352.45.352.802 0 .49-.347.825-.676.944v.017c.267.108.415.364.511.717.12.432.24.933.313 1.08h-.887c-.063-.113-.154-.42-.268-.893-.102-.478-.267-.608-.62-.614h-.261v1.507h-.86v-3.782zm.859 1.65h.341c.432 0 .688-.217.688-.552 0-.353-.239-.53-.637-.535-.21 0-.33.017-.392.028zm4.26 2.133v-1.57l-1.211-2.264h.99l.392.921c.12.279.199.484.296.734h.011c.085-.239.176-.46.29-.734l.387-.921h.973l-1.263 2.235v1.599z" fill="#b81237" transform="translate(275 26.5)"/>
</g>
</svg>
