<svg xmlns="http://www.w3.org/2000/svg" width="346" height="26" viewBox="0 0 91.545832 6.8791669">
  <g fill-rule="evenodd">
    <path d="M1.607 6.85V2.468h4.411V6.88H1.607v-.015z" fill="#aaa"/>
    <path d="M2.431 4.386V.006h4.412v4.41H2.431v-.015z" fill="#aaa"/>
    <path d="M-.005 5.411v-4.38h4.411v4.41H-.005v-.015z" fill="#002f5e"/>
    <path d="M1.607 6.85V2.468h4.411V6.88H1.607v-.015z" fill="#febe10" fill-opacity=".7"/>
    <path d="M2.431 4.386V.006h4.412v4.41H2.431v-.015z" fill="#b81237" fill-opacity=".7"/>
  </g>
  <path clip-path="url(#b)" d="M11.328 295.452a10.905 10.905 0 0 1-1.243-.444.7.7 0 0 0-.22-.047c-.71-.047-1.374-.57-1.374-1.599 0-.944.598-1.654 1.538-1.654.963 0 1.49.729 1.49 1.589 0 .715-.331 1.22-.747 1.407v.019c.243.07.514.126.762.177zm-1.318-1.057c.477 0 .757-.453.757-1.07 0-.575-.271-1.052-.757-1.052s-.767.477-.767 1.066c-.004.598.286 1.056.762 1.056zm3.482-2.636v1.814c0 .542.206.818.57.818.374 0 .58-.262.58-.818v-1.814h.71v1.767c0 .972-.49 1.435-1.313 1.435-.795 0-1.262-.44-1.262-1.444v-1.758zm5.146 1.818h-1.16v.748h1.295v.585h-2.01v-3.15h1.945v.584h-1.23v.654h1.16zm3.29 0h-1.16v.748h1.295v.585h-2.01v-3.15h1.945v.584h-1.23v.654h1.16zm1.416 1.333v-3.15h.832l.654 1.154a9.148 9.148 0 0 1 .514 1.08h.014c-.047-.417-.06-.842-.06-1.319v-.916h.654v3.15h-.748l-.673-1.215a11.729 11.729 0 0 1-.547-1.112l-.014.004c.019.416.028.86.028 1.374v.949zm4.775-3.235a6.27 6.27 0 0 1-.56 1.262l-.43.042c.14-.402.261-.85.322-1.262zm1.103 2.5c.192.099.486.197.79.197.327 0 .5-.136.5-.341 0-.197-.15-.309-.528-.444-.523-.183-.865-.472-.865-.93 0-.538.449-.95 1.192-.95.356 0 .617.076.804.16l-.159.575a1.495 1.495 0 0 0-.659-.15c-.308 0-.458.14-.458.304 0 .2.178.29.584.444.557.206.818.496.818.94 0 .528-.406.981-1.271.981-.36 0-.715-.098-.893-.196zm5.698-2.416v1.814c0 .542.206.818.57.818.375 0 .58-.262.58-.818v-1.814h.71v1.767c0 .972-.49 1.435-1.313 1.435-.794 0-1.262-.44-1.262-1.444v-1.758zm3.272 3.15v-3.15h.832l.654 1.155a9.148 9.148 0 0 1 .514 1.08h.014c-.046-.417-.06-.842-.06-1.319v-.916h.654v3.15h-.748l-.673-1.215a11.73 11.73 0 0 1-.547-1.112l-.014.004c.019.416.028.86.028 1.374v.949zm4.02-3.15h.714v3.15h-.715zm2.869 3.15l-1.01-3.15h.78l.384 1.332c.108.374.206.734.28 1.127h.014a13.785 13.785 0 0 1 .286-1.113l.402-1.346h.757l-1.061 3.15zm4.898-1.332h-1.16v.748h1.295v.585h-2.01v-3.15h1.945v.584h-1.23v.654h1.16zm1.416-1.776a6.26 6.26 0 0 1 .949-.065c.467 0 .794.07 1.018.248.188.15.29.369.29.659a.836.836 0 0 1-.556.776v.014c.22.088.341.299.42.588.099.356.197.767.258.889h-.73c-.05-.094-.125-.346-.22-.734-.083-.393-.219-.5-.509-.505H52.1v1.238h-.705v-3.108zm.705 1.356h.28c.356 0 .566-.178.566-.454 0-.29-.196-.434-.523-.439-.173 0-.271.014-.323.023zm2.884 1.019c.192.098.486.196.79.196.327 0 .5-.136.5-.341 0-.197-.15-.309-.528-.444-.523-.183-.865-.472-.865-.93 0-.538.45-.95 1.192-.95.356 0 .617.076.804.16l-.159.575a1.495 1.495 0 0 0-.659-.15c-.308 0-.458.14-.458.304 0 .2.178.29.584.444.556.206.818.496.818.94 0 .528-.406.981-1.27.981-.36 0-.716-.098-.894-.196zm3.295-2.417h.715v3.15h-.715zm2.734.599h-.846v-.599h2.421v.599h-.86v2.552h-.715zm3.462 2.552v-1.29l-.995-1.86h.813l.323.756c.098.23.163.398.243.603h.01c.07-.196.144-.378.238-.603l.318-.757h.799l-1.038 1.837v1.314zm4.604-3.15h.715v2.551h1.253v.599h-1.968zm3.173 0h.716v3.15h-.716zm2.117.041c.187-.037.566-.065.921-.065.435 0 .702.042.93.177.22.117.379.332.379.617 0 .28-.164.543-.519.673v.01c.36.098.627.369.627.775a.84.84 0 0 1-.328.669c-.229.182-.612.285-1.238.285a5.49 5.49 0 0 1-.772-.047zm.706 1.206h.234c.374 0 .575-.154.575-.388 0-.238-.183-.364-.505-.364-.154 0-.243.009-.304.018v.734zm0 1.398c.07.009.155.009.276.009.322 0 .608-.126.608-.454 0-.317-.286-.443-.64-.443h-.244zm2.903-2.604a6.26 6.26 0 0 1 .949-.065c.467 0 .794.07 1.018.248.187.15.29.369.29.659a.836.836 0 0 1-.556.776v.014c.22.088.341.299.42.588.099.356.197.767.257.889h-.729c-.051-.094-.126-.346-.22-.734-.083-.393-.219-.5-.509-.505h-.215v1.238h-.706v-3.108zm.705 1.356h.28c.356 0 .566-.178.566-.454 0-.29-.196-.434-.523-.439-.173 0-.271.014-.323.023zm3.591.944l-.224.809h-.738l.962-3.15h.935l.977 3.15h-.766l-.244-.809zm.8-.533l-.197-.668c-.056-.187-.112-.42-.159-.608h-.009c-.047.187-.094.425-.145.608l-.187.668zm2.327-1.767a6.26 6.26 0 0 1 .949-.065c.467 0 .794.07 1.019.248.187.15.29.369.29.659a.836.836 0 0 1-.557.776v.014c.22.088.342.299.42.588.1.356.197.767.258.889h-.73c-.05-.094-.125-.346-.219-.734-.084-.393-.22-.5-.51-.505h-.215v1.238h-.705v-3.108zm.706 1.356h.28c.355 0 .566-.178.566-.454 0-.29-.197-.434-.524-.439-.173 0-.27.014-.322.023zm3.5 1.753v-1.29l-.995-1.86h.813l.323.756c.098.23.163.398.243.603H90c.07-.196.144-.378.237-.603l.318-.757h.8l-1.038 1.837v1.314z" fill="#b81237" transform="translate(0 -290.12)"/>
</svg>
